<?xml version="1.0" encoding="UTF-8" standalone="no"?>
<!-- Created with Inkscape (http://www.inkscape.org/) -->

<svg
   version="1.1"
   id="svg2"
   width="816"
   height="1056"
   viewBox="0 0 816 1056"
   xmlns="http://www.w3.org/2000/svg"
   xmlns:svg="http://www.w3.org/2000/svg">
  <defs
     id="defs6" />
  <g
     id="g8"
     transform="matrix(1.3333333,0,0,-1.3333333,0,1056)">
    <g
       id="g10">
      <path
         d="m 244.4443,433.6078 c 0.1941,-0.0422 0.6613,-0.1902 1.3566,-0.4481 0.322,-0.1197 0.5859,-0.2107 0.7827,-0.2537 1.1922,-0.2625 2.1138,0.4711 2.5999,2.105 0.7798,2.6206 1.2898,5.4538 1.8666,8.1895 0.144,0.6838 0.0961,1.1914 -0.1389,1.5191 -0.2347,0.328 -0.7353,0.5729 -1.5009,0.7416 -0.1849,0.0405 -0.4561,0.0774 -0.8048,0.1187 -0.2684,0.0315 -0.5037,0.0735 -0.7016,0.1185 -0.4487,0.1024 -0.7846,0.303 -1.0063,0.601 -0.2216,0.2979 -0.2877,0.6366 -0.1984,1.0148 0.095,0.4036 0.3988,0.7546 0.9079,1.0556 0.5092,0.3008 1.1676,0.5182 1.9747,0.6571 4.0887,0.7149 8.136,0.6088 12.1393,0.0436 1.1064,-0.1565 1.9239,-0.4359 2.3973,-0.775 0.4734,-0.3387 0.6704,-0.7957 0.587,-1.3731 -0.0484,-0.3333 -0.1712,-0.5808 -0.3687,-0.7418 -0.1979,-0.161 -0.5684,-0.3132 -1.1141,-0.4538 -0.8676,-0.2223 -1.4023,-0.5701 -1.6004,-1.0505 -0.1979,-0.4802 -0.7013,-2.4843 -1.2095,-5.7915 -0.5148,-3.3457 -0.667,-5.2943 -0.6917,-5.5392 -0.0249,-0.2452 -0.0272,-0.5987 0.007,-1.0446 0.053,-0.6981 0.3047,-1.2223 0.7319,-1.5497 0.4275,-0.3282 1.2277,-0.6105 2.3956,-0.8251 1.3215,-0.2435 1.9281,-0.8207 1.8039,-1.7581 -0.1292,-0.9768 -1.1783,-1.4913 -3.1297,-1.5276 -2.7181,-0.0513 -5.6398,0.2126 -8.3055,0.7192 -1.8275,0.3475 -3.566,0.7747 -5.1492,1.3093 -1.9879,0.6715 -3.5041,1.353 -4.5394,1.9763 -1.008,0.6075 -1.4261,1.2688 -1.2566,1.9746 0.0908,0.3782 0.3447,0.6633 0.7612,0.8578 0.4155,0.1939 0.8909,0.2421 1.404,0.1301"
         style="fill:#0a030b;fill-opacity:1;fill-rule:nonzero;stroke:none"
         id="path12" />
      <path
         d="m 280.4091,441.3827 c -0.5703,0.0419 -1.074,-0.163 -1.4967,-0.6007 -0.4235,-0.4377 -0.6616,-0.9983 -0.7123,-1.6829 -0.0981,-1.3314 0.1564,-2.5044 0.7798,-3.515 0.6225,-1.0108 1.4201,-1.546 2.3782,-1.601 0.5695,-0.0326 1.0423,0.1372 1.4148,0.5077 0.3728,0.3702 0.5732,0.8671 0.6027,1.4882 0.0337,0.6993 -0.0868,1.4995 -0.3547,2.4018 -0.2684,0.9023 -0.583,1.5976 -0.9487,2.0653 -0.4456,0.5689 -1.0134,0.8887 -1.6631,0.9366 z m 0.6089,5.5324 c 2.5061,-0.0553 4.9612,-0.8734 7.0971,-2.0875 2.7711,-1.5752 4.2831,-4.5672 4.2681,-7.6887 -0.0159,-3.2666 -1.4644,-6.275 -3.0838,-8.9047 -1.963,-3.1879 -5.0054,-6.0154 -8.3908,-7.9526 -0.7654,-0.4244 -1.4179,-0.6183 -1.9517,-0.584 -0.9045,0.0581 -2.0472,0.4712 -3.4101,1.2487 -1.3626,0.7787 -2.0154,1.3833 -1.9785,1.7963 0.024,0.271 0.4909,0.6202 1.3918,1.0508 1.1128,0.5315 2.0936,1.319 2.9344,2.3474 0.773,0.9448 1.1775,1.7246 1.2178,2.3323 0.0323,0.4916 -0.2356,0.7558 -0.8031,0.7954 -0.1993,0.0136 -0.6843,0.008 -1.457,-0.0102 -0.1151,-0.004 -0.3141,0.005 -0.5978,0.027 -2.2723,0.1808 -4.0439,0.9657 -5.2833,2.2833 -0.9252,0.9839 -1.6046,2.1495 -2.0168,3.4894 -0.4122,1.3394 -0.5275,2.6983 -0.362,4.0754 0.3314,2.753 1.7453,4.7256 3.9858,6.027 2.6022,1.5114 5.6058,1.8167 8.4399,1.7547"
         style="fill:#0a030b;fill-opacity:1;fill-rule:nonzero;stroke:none"
         id="path14" />
      <path
         d="m 300.5308,446.3782 c 4.6545,0.2004 9.2821,0.5264 13.9187,0.9805 0.5205,0.0553 0.8844,-0.0156 1.0911,-0.214 0.2063,-0.1987 0.3458,-0.6137 0.4169,-1.2444 0.0984,-0.876 0.0377,-1.7536 -0.1885,-2.632 -0.2262,-0.879 -0.5757,-1.5934 -1.0485,-2.1354 -0.375,-0.4303 -0.8966,-0.6786 -1.5565,-0.7415 -3.0512,-0.2687 -6.0914,-0.4924 -9.1494,-0.6724 -1.0267,-0.0524 -1.5233,-0.4615 -1.4893,-1.2381 0.0144,-0.324 0.1434,-0.5454 0.3875,-0.6639 0.2438,-0.1182 0.7704,-0.1925 1.5797,-0.2143 2.5832,-0.0539 5.4805,-0.4981 7.9217,-1.323 1.6263,-0.549 3.0135,-1.4187 4.1185,-2.6373 0.7965,-0.8779 1.2693,-1.8669 1.3955,-2.9744 0.2049,-1.8028 -0.4493,-3.6102 -2.0217,-5.3989 -1.245,-1.4162 -2.9693,-2.5764 -5.1698,-3.448 -2.2011,-0.8711 -4.6843,-1.3794 -7.4186,-1.4987 -2.1724,-0.0953 -4.1621,0.1052 -5.934,0.5573 -1.6353,0.4175 -2.4622,1.1565 -2.4687,2.2065 -0.004,0.6094 0.1091,1.1347 0.3373,1.5769 0.2285,0.4422 0.5003,0.6653 0.8184,0.6692 0.1735,0.002 0.3906,-0.0343 0.6517,-0.108 0.5802,-0.1471 1.296,-0.2769 2.1461,-0.3857 0.8504,-0.1089 1.5298,-0.1526 2.0375,-0.1355 1.2314,0.0416 2.2153,0.3208 2.9441,0.8288 0.7282,0.508 1.0686,1.1531 1.0278,1.9293 -0.0499,0.9578 -0.678,1.7285 -1.8669,2.3232 -1.1449,0.5729 -2.5792,0.9576 -4.3024,1.1756 -1.4553,0.1839 -2.325,0.3152 -2.6138,0.3702 -0.2889,0.0547 -0.5601,0.1587 -0.8144,0.3124 -0.4935,0.2806 -0.7401,0.6817 -0.7427,1.2001 -0.004,0.6996 0.3135,2.0742 0.9238,4.1281 0.6098,2.0529 1.3014,4.0371 2.0376,5.9398 0.5981,1.5454 1.0414,2.5154 1.3595,2.8808 0.3177,0.3648 0.8744,0.5584 1.6718,0.5868"
         style="fill:#0a030b;fill-opacity:1;fill-rule:nonzero;stroke:none"
         id="path16" />
      <path
         d="m 329.2894,444.0226 c -1.2086,-0.1837 -1.6832,-1.33 -1.3436,-3.3492 0.4442,-2.6455 1.3788,-4.9351 2.8517,-6.847 0.576,-0.741 1.2319,-1.0452 1.9604,-0.9108 1.2745,0.235 1.7127,1.3856 1.3156,3.4342 -0.2223,1.1449 -0.5936,2.3431 -1.1081,3.5968 -0.5148,1.2541 -1.0499,2.251 -1.601,2.9917 -0.61,0.8198 -1.3204,1.1988 -2.075,1.0843 z m -0.5674,5.7829 c 1.7285,0.2651 3.545,0.2166 5.3611,-0.2899 2.4551,-0.6852 4.5099,-2.0047 6.1589,-3.9782 1.2078,-1.4457 2.0517,-3.1017 2.5049,-4.9405 0.8144,-3.3066 -0.1944,-6.7564 -2.3479,-9.2937 -1.6296,-1.9196 -4.6865,-3.7508 -7.1606,-4.011 -2.9027,-0.3053 -5.9428,-0.2182 -8.572,1.4599 -2.8392,1.8116 -4.6511,4.9473 -5.0644,8.2828 -0.384,3.1039 0.3334,6.4202 2.2743,8.8937 1.5006,1.9123 4.4739,3.5133 6.8457,3.8769"
         style="fill:#0a030b;fill-opacity:1;fill-rule:nonzero;stroke:none"
         id="path18" />
      <path
         d="m 448.8015,507.9161 c -2.1433,-1.6047 -4.1865,-4.5797 -5.7733,-7.3177 1.5508,6.2873 2.6835,12.6326 3.42,18.9615 2.3043,0.2481 8.0192,1.3068 13.9019,5.8323 6.1104,4.6888 7.1462,14.6387 7.1462,14.6387 0,0 -10.1591,-0.1151 -15.6787,-6.0148 -2.0512,-2.202 -3.7194,-6.0656 -4.8425,-9.2603 0.5775,6.8868 0.6962,13.7288 0.4286,20.4398 2.0438,0.597 7.5839,2.6394 12.7251,8.2874 5.1624,5.6664 4.6241,15.4661 4.6241,15.4661 0,0 -9.7806,-2.0112 -14.1956,-8.7392 -1.7765,-2.713 -2.814,-7.2437 -3.3829,-10.6557 -0.481,7.2592 -1.4201,14.3254 -2.7601,21.0719 1.9089,0.9808 6.8959,3.9914 10.952,10.3541 4.1037,6.4363 2.0693,15.789 2.0693,15.789 0,0 -9.1372,-3.7644 -12.3526,-11.0835 -1.262,-2.8783 -1.58,-7.2825 -1.6095,-10.6577 -1.6126,7.0299 -3.6507,13.6678 -6.0571,19.743 1.6807,1.2938 6.0412,5.1327 8.9827,12.0552 2.9637,6.9786 -0.4575,15.6251 -0.4575,15.6251 0,0 -8.2278,-5.3424 -10.1919,-13.0067 -0.8156,-3.1689 -0.3592,-7.7715 0.1715,-11.0818 -0.9,2.0659 -1.8366,4.064 -2.8177,5.9746 -2.1294,4.4952 -4.35,8.6216 -6.5945,12.4194 1.1801,1.2385 5.1775,5.8683 7.056,13.5734 1.7782,7.289 -2.8624,14.9947 -2.8624,14.9947 0,0 -7.1195,-6.6875 -7.8253,-14.4558 -0.3371,-3.6814 1.2316,-8.8625 2.319,-11.9279 -4.2596,6.9364 -8.5544,12.6408 -12.4699,17.246 0.8544,1.2594 4.1321,6.5423 4.7707,14.5264 0.5862,7.3641 -5.0896,13.9374 -5.0896,13.9374 0,0 -5.8226,-7.791 -5.3059,-15.4165 0.2591,-3.8631 2.8933,-8.9799 4.3886,-11.6161 -2.7142,3.0963 -5.2092,5.6358 -7.3341,7.6694 -0.335,1.3864 -2.0761,7.8613 -6.1764,10.8221 -3.2859,2.3613 -10.2447,2.7148 -10.2447,2.7148 0,0 1.1568,-5.6444 6.0647,-10.5903 3.2908,-3.3165 8.3702,-3.3395 9.9338,-3.2615 2.5429,-2.5702 5.6474,-5.9222 9.0204,-10.1166 -2.2969,1.6597 -7.0744,4.8104 -10.6965,5.1945 -6.9268,0.7257 -14.1449,-5.5094 -14.1449,-5.5094 0,0 5.868,-6.3595 12.5906,-5.8606 7.1861,0.521 12.0212,3.918 13.2715,4.8906 3.7523,-4.7815 7.7933,-10.5988 11.7389,-17.5196 -2.2235,2.2187 -5.9865,5.5962 -9.1885,6.5688 -6.8443,2.0772 -15.103,-2.7839 -15.103,-2.7839 0,0 4.875,-7.5348 11.7088,-8.3433 6.9324,-0.8277 12.1674,1.3581 13.896,2.2131 1.7172,-3.1403 3.4106,-6.4803 5.0454,-10.0599 1.5103,-3.0538 2.9216,-6.3077 4.2185,-9.7331 -1.8581,2.6575 -5.1517,6.8877 -8.2616,8.5119 -6.5441,3.4246 -15.6254,0.1375 -15.6254,0.1375 0,0 3.6816,-8.5167 10.4204,-10.6586 6.8981,-2.1977 12.5482,-0.9751 14.3643,-0.46 2.2609,-6.3808 4.1284,-13.2956 5.5227,-20.5832 -1.4961,3.0294 -3.9078,7.2723 -6.5106,9.3058 -6.0253,4.7174 -15.6767,3.1822 -15.6767,3.1822 0,0 2.3205,-9.2761 8.7429,-12.7389 6.2946,-3.3993 11.9401,-3.4234 14.0834,-3.2766 1.1086,-6.6053 1.8317,-13.4787 2.1098,-20.5132 -1.04,3.231 -2.6566,7.3114 -4.7219,9.6123 -5.2906,5.9091 -15.2428,6.2436 -15.2428,6.2436 0,0 0.8377,-9.7702 6.7329,-14.4992 5.5403,-4.4538 10.9916,-5.667 13.3494,-5.9953 0.0774,-6.7575 -0.2551,-13.6346 -1.0525,-20.5254 -0.5295,3.4396 -1.4952,7.8149 -3.1878,10.5149 -4.3588,6.9661 -14.3053,9.2398 -14.3053,9.2398 0,0 -0.7376,-9.9828 4.4217,-15.8831 4.8518,-5.5536 10.1336,-7.8344 12.4515,-8.6253 -0.9969,-6.8085 -2.4678,-13.6054 -4.4311,-20.2991 0.0408,3.6019 -0.1973,8.3928 -1.5038,11.5373 -3.2613,7.8465 -12.8925,12.0662 -12.8925,12.0662 0,0 -2.3471,-9.8861 1.8853,-16.82 4.0059,-6.5698 8.9861,-9.8886 11.1642,-11.112 -2.0216,-6.1277 -4.4787,-12.1488 -7.4143,-17.9836 0.5582,3.5016 0.9616,7.8979 0.2155,11.0514 -2.0098,8.5281 -11.0053,14.637 -11.0053,14.637 0,0 -3.9577,-9.4756 -0.82,-17.2704 2.8851,-7.1815 7.1903,-11.4485 9.254,-13.193 -2.8667,-5.5797 -6.0951,-10.8433 -9.6032,-15.7841 1.1145,3.395 2.2045,7.6841 1.9649,10.9667 -0.6417,8.9552 -8.6952,16.8471 -8.6952,16.8471 0,0 -5.5103,-8.7568 -3.6162,-17.1904 1.7203,-7.6811 5.2852,-12.7701 7.0999,-14.976 -3.6102,-4.6602 -7.4738,-9.0122 -11.5356,-13.0453 1.5755,3.0948 3.1723,6.8961 3.4441,10.0406 0.796,9.1261 -6.0207,18.6196 -6.0207,18.6196 0,0 -6.9478,-7.7253 -6.4061,-16.5708 0.4777,-7.8746 3.1252,-13.6 4.614,-16.2527 -4.1854,-3.8061 -8.5348,-7.2907 -12.9886,-10.4423 1.989,2.7338 4.0232,6.0472 4.7661,8.9983 2.2743,9.0139 -3.0404,19.8791 -3.0404,19.8791 0,0 -8.2349,-6.4094 -9.1176,-15.4054 -0.783,-7.8917 0.8966,-14.1004 1.9757,-17.1051 -4.9215,-3.1363 -9.9173,-5.8884 -14.9202,-8.2262 2.5467,2.42 5.3448,5.5174 6.6348,8.4898 3.7361,8.6159 0.1423,20.5722 0.1423,20.5722 0,0 -9.2988,-4.8473 -11.6379,-13.7104 -2.105,-7.9582 -1.3431,-14.6418 -0.743,-17.7888 -5.4516,-2.2167 -10.8603,-3.9523 -16.1263,-5.178 2.9934,1.9437 6.399,4.5612 8.2004,7.3491 5.1451,7.9324 3.4685,20.6458 3.4685,20.6458 0,0 -10.1277,-3.058 -13.9162,-11.5137 -3.3735,-7.5306 -3.6986,-14.353 -3.6122,-17.6587 -1.9635,-0.3252 -3.9004,-0.5837 -5.8039,-0.7586 -3.5053,-0.4538 -6.8661,-0.7308 -10.0956,-0.8768 3.1519,1.3505 6.6291,3.2151 8.7375,5.491 6.4505,6.9775 6.8213,20.075 6.8213,20.075 0,0 -10.6764,-1.0998 -15.8457,-8.8597 -4.3886,-6.5837 -5.894,-13.0694 -6.4108,-16.5591 l -3e-4,2e-4 c -2.7796,-0.8674 -6.7184,-2.8235 -8.6111,-3.681 -4.1952,-1.9021 -8.9659,-5.019 -13.9356,-8.6006 -4.9703,3.5816 -9.741,6.6985 -13.936,8.6006 -2.3304,1.0562 -5.3286,1.9715 -8.7962,3.0895 -0.2424,0.1539 -0.5357,0.2712 -0.9386,0.3038 -0.0884,0.0287 -0.1763,0.0576 -0.2656,0.0868 -0.4878,3.4367 -1.9655,10.0474 -6.44,16.7598 -5.169,7.7599 -15.8457,8.8597 -15.8457,8.8597 0,0 0.3708,-13.0975 6.8213,-20.075 2.109,-2.2759 5.5857,-4.1405 8.7375,-5.491 -3.2292,0.146 -6.5897,0.423 -10.095,0.8768 -1.904,0.1749 -3.8409,0.4334 -5.8045,0.7586 0.0865,3.3057 -0.2381,10.1281 -3.6119,17.6587 -3.7885,8.4557 -13.9164,11.5137 -13.9164,11.5137 0,0 -1.6764,-12.7134 3.4688,-20.6458 1.8014,-2.7879 5.2066,-5.4054 8.2,-7.3491 -5.2659,1.2257 -10.6741,2.9613 -16.1263,5.178 0.6004,3.147 1.3621,9.8306 -0.7427,17.7888 -2.3394,8.8631 -11.6379,13.7104 -11.6379,13.7104 0,0 -3.594,-11.9563 0.1426,-20.5722 1.2898,-2.9724 4.0876,-6.0698 6.6342,-8.4898 -5.0029,2.3378 -9.9984,5.0899 -14.9199,8.2262 1.0792,3.0047 2.7587,9.2134 1.9758,17.1051 -0.883,8.996 -9.1179,15.4054 -9.1179,15.4054 0,0 -5.3147,-10.8652 -3.0405,-19.8791 0.7433,-2.9511 2.7774,-6.2645 4.7665,-8.9983 -4.4541,3.1516 -8.8033,6.6362 -12.9884,10.4423 1.4882,2.6527 4.1358,8.3781 4.6134,16.2527 0.5417,8.8455 -6.406,16.5708 -6.406,16.5708 0,0 -6.8168,-9.4935 -6.0208,-18.6196 0.2719,-3.1445 1.8689,-6.9458 3.4444,-10.0406 -4.0618,4.0331 -7.9257,8.3851 -11.5359,13.0453 1.815,2.2059 5.3796,7.2949 7.1002,14.976 1.8939,8.4336 -3.6161,17.1904 -3.6161,17.1904 0,0 -8.0532,-7.8919 -8.6953,-16.8471 -0.2395,-3.2826 0.8501,-7.5717 1.9647,-10.9667 -3.5082,4.9408 -6.7368,10.2044 -9.6032,15.7841 2.0639,1.7445 6.3694,6.0115 9.254,13.193 3.1379,7.7948 -0.8201,17.2704 -0.8201,17.2704 0,0 -8.9952,-6.1089 -11.0052,-14.637 -0.7461,-3.1535 -0.3424,-7.5498 0.2154,-11.0514 -2.9355,5.8348 -5.3923,11.8559 -7.414,17.9836 2.1784,1.2234 7.1583,4.5422 11.1642,11.112 4.2327,6.9339 1.8851,16.82 1.8851,16.82 0,0 -9.631,-4.2197 -12.8925,-12.0662 -1.3065,-3.1445 -1.5446,-7.9354 -1.5038,-11.5373 -1.9636,6.6937 -3.4339,13.4906 -4.4309,20.2991 2.3182,0.7909 7.5994,3.0717 12.4515,8.6253 5.1591,5.9003 4.4218,15.8831 4.4218,15.8831 0,0 -9.9462,-2.2737 -14.3056,-9.2398 -1.6923,-2.7 -2.6578,-7.0753 -3.1876,-10.5149 -0.7977,6.8908 -1.1302,13.7679 -1.0528,20.5254 2.3584,0.3283 7.8095,1.5415 13.3498,5.9953 5.8949,4.729 6.7328,14.4992 6.7328,14.4992 0,0 -9.9524,-0.3345 -15.2427,-6.2436 -2.0651,-2.3009 -3.6819,-6.3813 -4.722,-9.6123 0.2778,7.0345 1.0009,13.9079 2.1099,20.5132 2.143,-0.1468 7.789,-0.1227 14.0833,3.2766 6.4225,3.4628 8.7429,12.7389 8.7429,12.7389 0,0 -9.6514,1.5352 -15.677,-3.1822 -2.603,-2.0335 -5.0139,-6.2764 -6.5103,-9.3058 1.3941,7.2876 3.2613,14.2024 5.5224,20.5832 1.8162,-0.5151 7.4662,-1.7377 14.364,0.46 6.7397,2.1419 10.4211,10.6586 10.4211,10.6586 0,0 -9.0814,3.2871 -15.6255,-0.1375 -3.1101,-1.6242 -6.4037,-5.8544 -8.2621,-8.5119 1.2971,3.4254 2.7091,6.6793 4.2191,9.7331 1.635,3.5796 3.3281,6.9196 5.0451,10.0599 1.7288,-0.855 6.9639,-3.0408 13.8963,-2.2131 6.8335,0.8085 11.709,8.3433 11.709,8.3433 0,0 -8.2593,4.8611 -15.1032,2.7839 -3.2023,-0.9726 -6.9653,-4.3501 -9.1883,-6.5688 3.9453,6.9208 7.9861,12.7381 11.7383,17.5196 1.2509,-0.9726 6.0857,-4.3696 13.2718,-4.8906 6.7227,-0.4989 12.5907,5.8606 12.5907,5.8606 0,0 -7.2182,6.2351 -14.1452,5.5094 -3.6221,-0.3841 -8.3993,-3.5348 -10.6962,-5.1945 3.3726,4.1944 6.4774,7.5464 9.0204,10.1166 1.5633,-0.078 6.6432,-0.055 9.9337,3.2615 4.9079,4.9459 6.0647,10.5903 6.0647,10.5903 0,0 -6.959,-0.3535 -10.2447,-2.7148 -4.1006,-2.9608 -5.8413,-9.4357 -6.1761,-10.8221 -2.1251,-2.0336 -4.6199,-4.5731 -7.3344,-7.6694 1.495,2.6362 4.1293,7.753 4.3886,11.6161 0.5168,7.6255 -5.3061,15.4165 -5.3061,15.4165 0,0 -5.6758,-6.5733 -5.0894,-13.9374 0.6384,-7.9841 3.9161,-13.267 4.7707,-14.5264 -3.9152,-4.6052 -8.2102,-10.3096 -12.4698,-17.246 1.0873,3.0654 2.656,8.2465 2.319,11.9279 -0.7058,7.7683 -7.8253,14.4558 -7.8253,14.4558 0,0 -4.6409,-7.7057 -2.8625,-14.9947 1.8786,-7.7051 5.8757,-12.3349 7.056,-13.5734 -2.2444,-3.7978 -4.4651,-7.9242 -6.5948,-12.4194 -0.981,-1.9106 -1.9173,-3.9087 -2.8176,-5.9746 0.5306,3.3103 0.9876,7.9129 0.1718,11.0818 -1.9647,7.6643 -10.1923,13.0067 -10.1923,13.0067 0,0 -3.4205,-8.6465 -0.4572,-15.6251 2.9412,-6.9225 7.3018,-10.7614 8.9821,-12.0552 -2.4057,-6.0752 -4.4436,-12.7131 -6.0568,-19.743 -0.0292,3.3752 -0.3475,7.7794 -1.6095,10.6577 -3.2153,7.3191 -12.3522,11.0835 -12.3522,11.0835 0,0 -2.0344,-9.3527 2.0693,-15.789 4.0558,-6.3627 9.0431,-9.3733 10.9519,-10.3541 -1.3399,-6.7465 -2.2793,-13.8127 -2.7604,-21.0719 -0.5689,3.412 -1.6061,7.9427 -3.3825,10.6557 -4.4153,6.728 -14.196,8.7392 -14.196,8.7392 0,0 -0.538,-9.7997 4.6242,-15.4661 5.1412,-5.648 10.6812,-7.6904 12.725,-8.2874 -0.2676,-6.711 -0.1488,-13.553 0.4289,-20.4398 -1.1234,3.1947 -2.7913,7.0583 -4.8424,9.2603 -5.5202,5.8997 -15.6787,6.0148 -15.6787,6.0148 0,0 1.0355,-9.9499 7.1461,-14.6387 5.8827,-4.5255 11.5974,-5.5842 13.9017,-5.8323 0.7364,-6.3289 1.8691,-12.6742 3.4203,-18.9615 -1.5866,2.738 -3.6301,5.713 -5.7734,7.3177 -6.493,4.8568 -16.7207,2.999 -16.7207,2.999 0,0 2.6515,-9.7988 9.538,-13.3231 6.3749,-3.2649 12.0807,-3.3565 14.6203,-3.1808 1.7436,-5.9428 3.8849,-11.8116 6.4598,-17.5342 -2.016,2.4046 -4.5048,4.9243 -6.8709,6.0981 -7.3148,3.6193 -17.2876,-0.2313 -17.2876,-0.2313 0,0 4.2403,-9.335 11.7391,-11.5387 6.9905,-2.0596 12.7831,-1.004 15.2651,-0.3333 2.5308,-5.3663 5.3745,-10.4806 8.5012,-15.3136 -2.3709,1.9667 -5.1889,3.9126 -7.6777,4.6128 -7.9378,2.2116 -17.3378,-3.6045 -17.3378,-3.6045 0,0 5.7716,-8.5493 13.6562,-9.3093 7.2465,-0.6956 12.8279,1.4162 15.2827,2.5855 3.4146,-4.7279 7.0906,-9.1684 10.9599,-13.3138 -2.7239,1.5353 -5.9225,2.9928 -8.5788,3.2148 -8.331,0.6803 -16.8375,-6.9959 -16.8375,-6.9959 0,0 7.1759,-7.4707 15.2266,-6.698 7.4279,0.7135 12.7108,3.9487 14.9694,5.5876 4.1667,-4.0388 8.5164,-7.7575 12.9864,-11.1489 -3.0232,1.0398 -6.5392,1.9168 -9.2917,1.6106 -8.4829,-0.9337 -15.7949,-10.3028 -15.7949,-10.3028 0,0 8.4206,-6.1066 16.3848,-3.7644 7.3655,2.1666 12.1544,6.4545 14.1525,8.5391 4.5451,-3.113 9.1766,-5.8941 13.8425,-8.3304 -2.998,0.369 -6.2827,0.4677 -8.7636,-0.2991 -8.371,-2.5906 -14.2084,-13.4263 -14.2084,-13.4263 0,0 9.4479,-4.4997 17.0714,-0.6006 6.7887,3.4755 10.8592,8.4602 12.6394,11.0449 4.7866,-2.1564 9.5643,-3.9527 14.2667,-5.3717 -2.8372,-0.2446 -5.7968,-0.8002 -7.9599,-1.9448 -7.998,-4.229 -12.1122,-16.2542 -12.1122,-16.2542 0,0 10.2215,-2.6861 17.2534,2.7204 6.1475,4.7251 9.4286,10.41 10.849,13.3974 3.1932,-0.6854 6.3383,-1.19 9.392,-1.5018 1.9656,-0.2724 3.8869,-0.4907 5.7739,-0.6582 -2.9233,-0.8107 -5.9612,-1.9624 -8.0382,-3.6031 -7.3479,-5.8034 -9.5471,-18.6857 -9.5471,-18.6857 0,0 10.7079,-0.7126 16.9027,6.0868 5.4925,6.0319 7.8605,12.4815 8.7736,15.7176 0.553,-0.0156 1.1004,-0.0261 1.6449,-0.034 v -10e-4 c 5.0692,-0.4722 10.2183,-0.3064 14.919,-3.1198 2.6958,-1.6152 5.1429,-4.0887 7.4529,-6.8785 -11.823,-8.803 -24.2773,-19.241 -32.5126,-21.6627 0,0 15.8894,-1.0383 23.0347,2.7354 4.4549,2.3517 8.4727,8.5916 12.8573,14.5653 4.3847,-5.9737 8.4028,-12.2136 12.8577,-14.5653 7.1442,-3.7737 23.0363,-2.7354 23.0363,-2.7354 -8.236,2.4217 -20.6915,12.8594 -32.5151,21.6627 2.31,2.7895 4.7574,5.2633 7.454,6.8785 3.028,1.8119 6.8786,2.3601 10.6217,3.1105 1.4732,-0.0119 2.9804,10e-4 4.5233,0.0445 0.9124,-3.2361 3.2805,-9.6857 8.7732,-15.7176 6.1948,-6.7994 16.9027,-6.0868 16.9027,-6.0868 0,0 -2.1991,12.8823 -9.5474,18.6857 -2.0766,1.6407 -5.1151,2.7924 -8.0379,3.6031 1.8873,0.1675 3.8081,0.3858 5.7739,0.6582 3.0541,0.3118 6.1985,0.8164 9.392,1.5018 1.4202,-2.9874 4.7016,-8.6723 10.8491,-13.3974 7.0319,-5.4065 17.2533,-2.7204 17.2533,-2.7204 0,0 -4.1145,12.0252 -12.1121,16.2542 -2.1631,1.1446 -5.1228,1.7002 -7.96,1.9448 4.7021,1.419 9.4796,3.2153 14.2668,5.3717 1.7804,-2.5847 5.8507,-7.5694 12.6391,-11.0449 7.6235,-3.8991 17.0716,0.6006 17.0716,0.6006 0,0 -5.8371,10.8357 -14.2083,13.4263 -2.4806,0.7668 -5.7657,0.6681 -8.7636,0.2991 4.6655,2.4363 9.2973,5.2174 13.8424,8.3304 1.9979,-2.0846 6.787,-6.3725 14.1523,-8.5391 7.9642,-2.3422 16.3851,3.7644 16.3851,3.7644 0,0 -7.3123,9.3691 -15.7953,10.3028 -2.7521,0.3062 -6.2682,-0.5708 -9.2916,-1.6106 4.4699,3.3914 8.8202,7.1101 12.9863,11.1489 2.259,-1.6389 7.5413,-4.8741 14.9698,-5.5876 8.0504,-0.7727 15.2266,6.698 15.2266,6.698 0,0 -8.5062,7.6762 -16.8378,6.9959 -2.6561,-0.222 -5.855,-1.6795 -8.5788,-3.2148 3.8699,4.1454 7.5455,8.5859 10.9602,13.3138 2.4548,-1.1693 8.0362,-3.2811 15.2824,-2.5855 7.8848,0.76 13.6562,9.3093 13.6562,9.3093 0,0 -9.3997,5.8161 -17.3379,3.6045 -2.4888,-0.7002 -5.3067,-2.6461 -7.6776,-4.6128 3.1266,4.833 5.9703,9.9473 8.5011,15.3136 2.482,-0.6707 8.2746,-1.7263 15.2657,0.3333 7.4985,2.2037 11.7388,11.5387 11.7388,11.5387 0,0 -9.9731,3.8506 -17.2876,0.2313 -2.3661,-1.1738 -4.8549,-3.6935 -6.8715,-6.0981 2.5756,5.7226 4.7169,11.5914 6.4605,17.5342 2.5392,-0.1757 8.2454,-0.0841 14.6202,3.1808 6.8862,3.5243 9.5378,13.3231 9.5378,13.3231 0,0 -10.2274,1.8578 -16.7205,-2.999"
         style="fill:#005c30;fill-opacity:1;fill-rule:nonzero;stroke:none"
         id="path20" />
      <path
         d="m 257.1755,493.4996 c -7.1949,1.4505 -25.8693,10.0324 -28.1951,-6.9877 -0.7549,-5.5233 0.6591,-13.3228 2.4605,-17.962 2.1906,-5.6404 -0.2843,-2.7887 -1.1962,-7.3122 -1.3924,-6.9052 5.2687,-10.5007 10.2656,-8.7149 2.7074,0.9681 0.8765,1.1061 3.8421,0.22 1.711,-0.5114 2.9917,-0.6534 4.8742,-0.1599 4.2497,1.114 9.089,6.3275 11.6932,9.3141 4.6295,5.3101 13.2021,18.2534 6.5971,25.4407 l -2.2411,1.8589 c -0.6435,0.584 -0.3354,0.2254 -0.7002,0.747 5.8995,-0.6191 5.5582,-2.7273 6.344,-3.7939 1.4241,-1.9333 4.6201,-2.5946 7.6915,-1.8366 4.621,1.1415 1.7331,1.8295 8.1788,1.3844 3.2845,-0.227 6.7589,-0.2517 10.0499,-0.1006 13.1239,0.6038 29.6706,4.6344 37.9732,12.7565 1.4281,1.3972 2.5816,4.191 4.4771,5.5601 3.7893,2.7369 6.8354,5.8 8.2153,11.8177 3.5587,15.5222 -7.431,26.2383 -8.9455,31.0249 9.9978,7.1376 14.9828,21.7037 15.3167,34.2323 5.6401,-1.283 8.5017,-4.2296 18.5494,-2.8769 2.6937,0.3626 15.8391,3.227 14.8906,7.3539 -1.2373,0.675 -3.8449,0.919 -5.4122,1.4443 -1.98,0.6639 -3.38,1.2747 -5.0504,2.2663 -3.3534,1.9908 -5.635,3.7329 -8.3858,5.8062 -1.3226,0.9969 -2.2649,2.052 -3.7579,3.0827 -4.9127,3.3914 -7.5688,5.654 -14.1774,7.4276 2.9347,2.5931 5.1117,3.3474 7.3825,6.3632 7.5662,10.0466 7.9483,21.32 2.217,32.4649 -3.2783,6.374 -7.8662,11.4262 -12.8126,14.9939 -2.8514,2.0554 -15.1078,9.5916 -20.2045,6.3417 0.2993,-2.1612 4.3869,-3.132 8.456,-6.5892 5.4159,-4.6012 10.7813,-12.6136 8.9804,-20.5407 -0.8739,-3.8497 -3.9018,-7.8987 -6.3362,-9.0408 -9.3527,14.7787 -27.1293,29.1997 -45.6438,29.1226 -14.8119,-0.0627 -28.8207,-9.2197 -37.2801,-18.8121 -2.2623,-2.5654 -6.5991,-7.2737 -8.151,-10.4208 -5.8388,2.4897 -8.9762,12.1981 -4.2038,21.1958 2.3508,4.4326 7.1495,8.979 11.2209,11.5997 1.5432,0.9935 3.695,1.6378 4.2458,3.416 -10.3935,5.6789 -44.0504,-18.7421 -35.9096,-44.5799 1.2047,-3.8242 2.7967,-6.4769 4.9904,-9.0876 3.3148,-3.9444 3.8656,-3.7837 7.4347,-6.4018 -16.0886,-5.5457 -19.6798,-15.0667 -31.5213,-18.8421 -2.0058,-0.6404 -3.9914,-0.5987 -5.4929,-1.7388 0.5343,-3.6808 10.4011,-6.3507 14.8796,-6.942 9.1783,-1.2116 11.624,0.8501 18.7265,2.8887 0.6381,-7.4914 1.5154,-14.0774 4.5876,-20.2977 3.6442,-7.3812 7.1501,-9.5993 10.785,-14.5409 -4.8895,-8.227 -11.8809,-17.4844 -8.7563,-30.6198 0.9732,-4.0887 2.7083,-6.5795 5.4346,-9.5531 2.5189,-2.7473 1.8278,0.0885 5.2923,-5.212 2.4012,-3.6735 6.5126,-5.5823 8.3214,-7.1601"
         style="fill:#000001;fill-opacity:1;fill-rule:evenodd;stroke:none"
         id="path22" />
      <path
         d="m 268.9824,556.077 c -11.8959,-2.1994 -18.0893,-10.3034 -22.5638,-19.3125 -10.6271,-21.3962 -0.1398,-36.307 20.3576,-30.865 5.786,1.5361 11.1617,2.9503 17.6195,3.4577 20.2732,1.5934 22.3419,-1.3839 37.6345,-4.1318 13.8926,-2.4959 22.6542,5.9531 21.2034,19.5732 -0.6893,6.4744 -5.8518,16.3205 -9.7854,21.1621 -4.6296,5.699 -12.4566,10.6886 -20.52,10.4448 -5.6163,-0.1701 -10.4018,-4.894 -13.8382,-7.1152 -12.5232,-8.0946 -16.3205,9.3362 -30.1076,6.7867"
         style="fill:#ffffff;fill-opacity:1;fill-rule:evenodd;stroke:none"
         id="path24" />
      <path
         d="m 250.2337,536.4641 c 1.2359,-0.387 2.4509,-0.5837 3.786,0.0547 l 2.9645,1.9491 c 3.3859,-6.5381 7.8324,-10.7615 13.4365,-14.7305 -1.1084,-0.7382 -1.0318,-0.3759 -1.0593,-1.9956 2.5772,-1.0378 3.8179,-0.7098 5.4374,-2.3154 8.6113,-8.5362 17.7157,-11.0897 29.5443,-4.716 5.0602,2.7264 4.2653,4.5156 8.3212,3.477 3.5138,-0.9 2.3442,-0.4292 2.8346,0.1018 1.5474,1.6367 -1.1684,2.3904 -2.7595,2.6163 0.6528,1.1594 0.2148,0.5125 1.0009,1.2983 2.7343,2.732 3.6224,1.2977 9.8577,9.3297 0.8266,1.065 0.9173,1.7393 1.6776,2.8641 1.493,2.2096 0.2503,0.5015 2.7006,1.3861 2.6725,0.9652 3.1062,3.9952 -3.9694,5.8323 1.6282,5.4046 -0.9578,8.4796 -5.4473,10.0562 -12.3356,4.3322 -11.5504,-9.5037 -30.697,-19.8825 -11.7907,-6.3912 -16.0648,-5.2676 -23.4728,2.7542 -6.4848,7.0217 -3.9529,6.3759 -3.6706,7.6215 1.5554,6.8581 -11.0137,0.0782 -10.4854,-5.7013"
         style="fill:#000001;fill-opacity:1;fill-rule:evenodd;stroke:none"
         id="path26" />
      <path
         d="m 255.8188,629.4339 c 3.2429,0.2767 3.7602,2.2337 5.2688,4.1976 3.1567,4.1094 9.7625,15.3099 14.4856,13.856 -0.4439,-1.554 -0.61,-1.4139 -1.6909,-2.4253 -3.4254,-3.204 -7.3403,-8.0595 -9.5281,-12.3236 -1.2362,-2.4084 -2.1234,-3.6071 -0.7962,-6.0628 2.9962,-0.1043 3.0659,1.6384 4.3483,3.9682 1.0792,1.961 7.6374,13.5326 9.6458,14.0293 0.0986,0.0241 0.2415,0.0391 0.3415,0.0501 1.7861,0.1863 0.5664,0.0448 1.1092,-0.1613 l -2.8992,-4.8424 c -2.0367,-2.7246 -10.2637,-13.8529 -6.4361,-16.2156 3.1739,-1.9584 3.6125,3.248 6.2362,9.135 l 4.1576,8.1782 c 1.1075,1.8368 0.6727,1.7348 2.2039,1.546 l 0.0768,-0.7293 c -0.008,-0.0766 0.003,-0.2591 -0.0133,-0.351 l -4.3789,-8.7814 c -0.7796,-1.7581 -4.5431,-9.9275 -0.8062,-10.5738 2.2311,-0.3858 2.1756,2.6322 2.4607,4.3546 0.5843,3.5316 2.909,10.3107 4.7651,13.4722 0.7846,1.3362 0.6766,1.4765 2.7105,1.516 l -3.7222,-9.0902 c -0.9814,-2.831 -2.3717,-8.2627 -1.2835,-10.8728 1.4306,-0.6588 3.0574,-0.656 4.477,0.0207 0.7331,1.7948 0.5607,7.7459 1.0531,10.646 l 1.65,7.3925 c 0.6523,1.5727 0.5939,1.2175 2.1172,1.5041 l -1.1307,-16.9331 c -0.0309,-2.3309 -0.1018,-3.9688 2.3882,-3.9699 6.2404,-0.004 -0.2826,16.5909 1.4496,21.0147 2.4472,-0.7036 1.8354,-1.1268 2.5657,-3.9941 1.8119,-7.1152 1.3107,-14.0272 2.5412,-16.0185 2.0078,-0.3045 2.6498,-0.0531 4.299,0.462 1.1707,9.2239 -4.3744,15.2291 -5.0646,19.8377 2.7867,-0.1145 2.4738,-1.2285 3.5453,-3.5385 0.6848,-1.4774 1.506,-3.1249 2.1072,-4.7863 0.7648,-2.1143 2.3925,-10.2603 2.9693,-11.0191 5.0502,0.3353 2.3837,6.3706 0.5953,10.1506 -0.898,1.8978 -1.5837,3.5804 -2.6286,5.4941 -0.8705,1.5933 -2.7036,3.7681 -1.8535,5.3603 4.0189,-1.6245 8.0838,-16.653 10.3215,-19.6588 1.7291,-0.1211 1.6659,0.1964 2.9347,0.7285 0.8566,4.3461 -2.3729,8.8118 -4.2044,11.5991 -1.1194,1.7036 -8.935,10.3753 -4.6768,9.3679 0.8943,-0.212 2.806,-2.7666 3.3412,-3.4574 0.9031,-1.1662 2.5931,-3.8087 3.4404,-5.2195 1.142,-1.9029 2.1002,-3.6895 3.1572,-5.5173 1.4406,-2.4925 1.4712,-4.3909 4.7908,-3.8563 0.7838,4.4164 -2.7493,8.6015 -4.8563,11.5317 -1.2396,1.7234 -2.4812,3.0427 -3.7397,4.4719 -1.2612,1.4326 -3.473,2.838 -4.0173,4.6318 6.1376,2.192 14.3521,-16.2354 18.2787,-17.7707 1.5516,-0.6074 2.7379,0.5046 2.8454,1.9466 0.3296,4.4325 -25.9484,36.4535 -56.8029,19.5653 -6.8216,-3.7335 -12.5093,-9.2157 -16.9376,-15.0395 -1.9035,-2.5019 -3.6252,-3.9779 -1.211,-6.8202"
         style="fill:#ed1c24;fill-opacity:1;fill-rule:evenodd;stroke:none"
         id="path28" />
      <path
         d="m 236.9214,609.5353 7.9186,16.7848 c -7.9246,6.3978 -11.0821,16.7921 -3.6496,26.892 0.8098,1.1009 1.0975,1.3853 1.8581,2.2626 0.79,0.911 1.7597,1.4765 0.7829,2.4012 -3.407,3.2264 -27.7546,-20.9568 -15.378,-40.9382 1.4429,-2.3295 5.4913,-7.1328 8.468,-7.4024"
         style="fill:#ed1c24;fill-opacity:1;fill-rule:evenodd;stroke:none"
         id="path30" />
      <path
         d="m 340.7862,626.2778 7.5328,-16.7269 c 3.4645,0.46 8.4974,6.3226 9.8767,9.7293 2.0708,5.1166 2.8321,11.3301 1.1983,17.0694 -1.8077,6.3471 -3.0629,8.5813 -6.3284,13.2367 -1.8581,2.6489 -7.427,8.5991 -11.7794,8.3863 0.009,-2.8321 0.9573,-1.211 4.4623,-6.9801 3.3222,-5.468 3.6596,-12.4112 0.4235,-18.0929 -1.7501,-3.0717 -3.5271,-4.4071 -5.3858,-6.6218"
         style="fill:#ed1c24;fill-opacity:1;fill-rule:evenodd;stroke:none"
         id="path32" />
      <path
         d="m 278.0379,524.3411 c 2.6737,-1.5704 9.6741,-3.1053 13.6982,-3.0033 6.1441,0.1571 8.7213,1.7584 12.8698,4.436 4.5187,2.9168 11.969,10.8946 14.696,15.4074 0.5853,0.9677 1.0281,1.7929 0.6307,3.2477 -0.5468,2.0009 -2.7085,3.3465 -4.7597,3.4849 -4.0666,0.2735 -8.9422,-6.9154 -14.4921,-11.5124 -1.7634,-1.4607 -3.0773,-2.3332 -4.8923,-3.8024 -5.3799,-4.3554 -16.5045,-7.4877 -17.7506,-8.2579"
         style="fill:#ed1c24;fill-opacity:1;fill-rule:evenodd;stroke:none"
         id="path34" />
      <path
         d="m 251.8968,623.2912 c 3.8384,-1.557 3.6686,1.3439 6.2975,-2.8698 2.1245,-3.4058 3.2349,-1.5094 7.1538,-1.6358 1.5338,-1.8332 1.6665,-3.5972 5.3886,-3.1573 5.8899,0.6962 3.1802,-1.5122 6.8001,-1.8924 3.8403,-0.4033 1.7685,2.5586 6.849,-0.5961 3.4492,-2.1416 3.2789,0.6514 6.8397,0.5275 1.7178,-0.9277 1.495,-2.012 3.7732,-2.2334 2.8868,-0.2795 3.0513,1.0287 4.3234,1.8819 1.6915,1.1336 2.4917,-0.1468 3.8625,-0.6738 2.3225,-0.8931 2.8789,0.4343 4.2585,1.2762 2.4999,1.5256 2.418,0.3645 4.7696,-0.066 2.4826,-0.4542 2.9197,0.9714 4.2352,1.6375 4.0774,2.0634 4.1585,-2.7096 8.5204,2.5081 0.0624,0.0754 0.1673,0.1874 0.2265,0.2543 1.4845,1.6747 3.2615,-0.6503 6.1438,0.6514 1.9174,0.8699 1.0735,1.7147 2.7584,3.2221 1.5622,1.3978 3.0081,0.5137 5.2617,1.1484 0.4549,2.137 0.271,2.878 -0.5837,4.5034 -5.3172,1.449 -3.4276,-0.4615 -5.203,-3.6956 -2.3244,-0.6284 -3.1949,0.5426 -5.2704,-0.3163 -1.1846,-0.4904 -2.0172,-2.2014 -3.024,-3.2213 -2.2717,-0.1667 -2.9543,0.9374 -4.777,0.411 -2.2983,-0.6636 -1.0598,-1.622 -2.859,-3.0929 -3.0421,-0.7588 -2.1966,1.395 -6.2637,1.1328 -1.2053,-1.1223 -1.19,-1.7411 -2.6657,-2.6127 -2.8573,0.2511 -2.0925,1.4813 -4.2174,1.7385 -3.1419,0.3806 -1.9859,-1.91 -4.1389,-2.3826 -1.97,-0.4331 -2.4485,1.4162 -4.9742,1.3573 -2.1016,-0.0491 -2.3522,-1.2773 -4.6182,-1.5761 -1.3068,0.9672 -1.5092,1.5092 -2.5512,2.5894 -4.568,0.15 -2.7326,-1.5295 -6.2901,-1.7869 -1.4799,1.131 -1.0329,1.55 -2.6668,2.6339 -3.4622,0.2299 -2.8602,-1.6398 -5.942,-1.1741 -0.9547,1.1024 -1.292,2.5271 -2.6903,3.066 -1.6821,0.648 -2.8769,-0.5332 -5.0539,-0.3563 -2.4991,2.1075 -0.6789,3.6294 -5.1886,3.4134 -4.2225,-0.2026 -3.2683,1.1498 -4.5192,4.1412 -3.9921,0.3588 -5.6798,-1.4618 -3.9646,-4.7549"
         style="fill:#ffffff;fill-opacity:1;fill-rule:evenodd;stroke:none"
         id="path36" />
      <path
         d="m 250.5713,484.1634 c 1.1668,-0.8994 0.5868,-0.1445 0.8275,-1.4173 l 0.5734,-0.7957 c 0.3835,-0.767 3.113,-8.7585 2.6683,-10.5392 1.0729,-1.779 0.3807,-6.5432 0.699,-10.1458 2.3383,0.5228 2.594,1.7952 3.7534,3.3098 l 3.2969,3.4642 c 0.3841,1.6931 0.2529,1.3603 1.1259,2.6569 0.6506,0.9655 0.4851,1.0962 1.4477,1.8629 -0.6616,2.361 -0.3518,0.946 0.4791,1.3405 0.6769,0.5602 -0.0698,-0.3662 0.5485,0.6568 0.2395,0.396 0.2367,0.3453 0.4379,0.8711 0.309,0.809 0.472,1.5633 0.3439,2.6053 -0.0993,1.8085 0.1221,2.9067 -0.4065,4.6063 -0.6648,2.1374 -0.9692,1.1543 -1.4199,3.2165 -2.0208,0.2177 -2.4508,0.6197 -2.9098,2.2244 -0.6752,0.1352 -0.6205,0.1148 -1.1996,0.3546 -0.0711,0.0292 -0.2299,0.0618 -0.2818,0.1998 -0.0496,0.1335 -0.1621,0.1517 -0.2463,0.2237 -2.1657,-0.0275 -0.8855,0.2826 -1.074,0.6732 -1.0386,-0.2959 -1.0982,-0.6854 -0.6889,0.2611 -1.6381,-0.4964 -0.6154,-0.3365 -0.96,0.5669 l -1.2416,0.3464 c -1.6886,-0.1086 -0.7623,-0.0417 -1.0435,0.3985 l -1.3203,0.4785 c -1.5996,-0.0136 -1.226,-0.0294 -2.7003,0.885 -2.2459,-0.3268 -3.5022,0.703 -6.2578,0.8663 0.4709,-1.3601 1.0494,-1.6889 2.5384,-3.4818 1.2788,-1.5387 2.9016,-3.42 3.0104,-5.6889"
         style="fill:#ed1c24;fill-opacity:1;fill-rule:evenodd;stroke:none"
         id="path38" />
      <path
         d="m 268.2238,502.0098 c 12.3455,-4.8161 30.3956,-5.6248 44.0422,-1.91 4.5363,1.2348 4.2287,1.0517 5.0278,2.7386 -11.1563,3.8449 -25.7975,4.102 -38.0475,2.5596 -2.0094,-0.2525 -3.9413,-0.5417 -5.8683,-0.9938 -0.9538,-0.2236 -2.0035,-0.4771 -2.8757,-0.7993 -1.5384,-0.5678 -1.7481,-0.8533 -2.2785,-1.5951"
         style="fill:#ffffff;fill-opacity:1;fill-rule:evenodd;stroke:none"
         id="path40" />
      <path
         d="m 236.1084,467.3106 c 2.5322,0.284 1.9826,0.8215 3.2485,3.0688 2.2765,4.0411 5.6421,7.9605 8.7392,11.3709 -0.7679,4.7472 -10.6495,17.3455 -14.5329,8.8047 -2.2076,-4.8552 -1.2972,-19.8743 2.5452,-23.2444"
         style="fill:#ffffff;fill-opacity:1;fill-rule:evenodd;stroke:none"
         id="path42" />
      <path
         d="m 378.3648,585.1106 c -0.0927,0.0773 -0.2432,0.3027 -0.2922,0.2143 -0.0482,-0.0885 -0.2251,0.1652 -0.2931,0.2049 -2.2099,1.2756 -2.4727,0.6548 -6.3981,3.259 l -8.5941,6.9219 c -4.1048,2.541 -5.7872,3.8546 -11.2629,4.7469 1.7481,-9.8716 -0.0224,-9.7257 8.0926,-13.756 4.5482,-2.2589 13.5907,-4.4271 18.7478,-1.591"
         style="fill:#ffffff;fill-opacity:1;fill-rule:evenodd;stroke:none"
         id="path44" />
      <path
         d="m 207.0527,584.9453 c 6.4253,-4.002 23.5607,2.1827 25.115,6.0812 0.3322,0.8345 1.5072,8.0299 1.6463,9.2726 -8.0362,-1.1945 -12.9792,-6.2464 -19.8983,-11.7187 -1.9253,-1.5222 -4.9853,-2.0786 -6.863,-3.6351"
         style="fill:#ffffff;fill-opacity:1;fill-rule:evenodd;stroke:none"
         id="path46" />
      <path
         d="m 271.148,554.3416 c -11.3714,-2.1458 -12.9889,-17.5626 -1.6166,-14.9749 10.565,2.4038 12.3778,17.0056 1.6166,14.9749"
         style="fill:#000001;fill-opacity:1;fill-rule:evenodd;stroke:none"
         id="path48" />
      <path
         d="m 320.6387,601.8491 c 1.2141,-0.4623 1.3249,-0.6097 2.152,-1.6015 l 1.2498,-1.5027 c 0.7844,-0.7021 -0.009,-0.1431 0.8467,-0.6089 -0.1834,11.3086 -23.589,13.203 -19.83,-9.8983 9.9045,4.7271 8.7588,9.2302 10.5894,11.8151 1.8621,-5.1636 -0.6055,-4.5003 1.146,-6.6628 2.3865,4.2769 1.054,2.8851 1.4151,7.7221 l 2.4038,-3.9081 c 0.0501,-0.0989 0.098,-0.2197 0.1516,-0.3169 l 0.8277,-1.1764 c 0.309,3.687 -0.3838,3.3208 -0.9521,6.1384 z m 4.1439,-4.1122 c -0.0328,-0.3416 0.6302,-1.2226 0.2931,-0.2123 -0.0447,0.1324 -0.1655,1.5398 -0.2931,0.2123"
         style="fill:#ffffff;fill-opacity:1;fill-rule:evenodd;stroke:none"
         id="path50" />
      <path
         d="m 260.2908,597.5597 c 1.8839,1.766 1.9003,3.6207 4.7772,4.565 -0.7194,-2.7811 -2.0412,-3.797 -0.8254,-7.0949 0.4345,1.0735 0.3551,1.717 0.9283,2.9444 0.4762,1.0193 0.9618,1.6534 1.4111,2.694 0.0811,-0.1179 0.1559,-0.1672 0.1783,-0.3903 l 0.5814,-4.3141 c 0.4059,-1.5755 1.3016,-2.2583 2.3173,-2.8544 -0.6112,3.1716 -0.8941,3.3329 -0.2072,6.6883 2.9625,-2.1467 -0.1871,-6.3247 11.0398,-11.5206 1.3895,25.5688 -18.9995,19.8443 -20.2008,9.2826"
         style="fill:#ffffff;fill-opacity:1;fill-rule:evenodd;stroke:none"
         id="path52" />
      <path
         d="m 285.9165,492.0857 -0.7356,-3.1039 c 12.3098,-0.7974 26.4694,0.055 37.4341,5.0564 2.463,1.1239 7.9821,4.3821 8.7874,5.9312 1.3674,2.6277 -2.562,1.7507 -3.6935,1.2838 -1.8086,-0.7461 -2.9362,-1.9284 -4.4873,-2.8372 -7.1972,-4.2168 -14.775,-4.8994 -22.9983,-5.9629 -4.324,-0.5593 -9.849,0.1168 -14.3068,-0.3674"
         style="fill:#ed1c24;fill-opacity:1;fill-rule:evenodd;stroke:none"
         id="path54" />
      <path
         d="m 323.3605,593.7089 c -1.8011,-3.024 1.1288,-10.1634 -0.015,-14.8666 -1.2869,-5.2931 -5.0559,-6.304 -8.2508,-9.1352 7.1875,-0.038 11.283,3.4186 13.0277,8.9864 0.953,3.0424 1.0188,6.3825 0.4975,9.7177 -0.5528,3.5399 -0.8416,6.3422 -5.2594,5.2977"
         style="fill:#ffffff;fill-opacity:1;fill-rule:evenodd;stroke:none"
         id="path56" />
      <path
         d="m 270.4462,569.7394 c -7.6286,5.0066 -10.3054,7.2516 -7.9892,19.5231 0.7861,4.1646 -1.7648,6.4173 -4.0584,4.0926 -3.2845,-3.3279 -3.9398,-24.9327 12.0476,-23.6157"
         style="fill:#ffffff;fill-opacity:1;fill-rule:evenodd;stroke:none"
         id="path58" />
      <path
         d="m 239.7419,464.5548 c -4.2608,0.9516 -8.2194,-1.9452 -7.1646,-6.1818 1.3289,-5.3408 9.2922,-5.2722 10.3297,-0.0811 0.7229,3.6196 -2.1495,4.2477 0.4629,9.0842 2.5078,4.6434 5.0859,5.055 7.7258,7.1651 0.0808,1.7294 -0.4124,3.2908 -1.1894,4.7503 -2.7249,-1.6361 -9.0456,-9.9626 -10.1644,-14.7367"
         style="fill:#ed1c24;fill-opacity:1;fill-rule:evenodd;stroke:none"
         id="path60" />
      <path
         d="m 252.9615,477.0479 c 0.3118,-1.0018 0.4944,-1.7716 0.7296,-2.8763 0.8915,-3.4129 1.2147,-8.934 0.7342,-12.3075 l 0.0995,-3.0047 c 3.176,1.2266 6.6651,7.3239 8.845,10.1398 0.2908,0.3756 0.4733,0.7305 0.6888,1.1248 0.9864,1.8011 0.919,1.8711 1.3839,3.7757 -0.8309,-0.3945 -2.0138,1.1855 -1.3516,-1.1755 -0.9624,-0.7668 0.0754,-1.0624 -0.5752,-2.0279 -0.873,-1.2966 -1.0703,-0.7991 -1.4544,-2.4919 l -2.9684,-3.6292 c -1.1594,-1.5146 -1.4151,-2.787 -3.7534,-3.3098 -0.3183,3.6026 0.3739,8.3668 -0.699,10.1458 0.4447,1.7807 -2.2848,9.7722 -2.6683,10.5392 l -0.5734,0.7957 c -0.2407,1.2728 0.3393,0.5179 -0.8275,1.4173 -0.1088,2.2689 -1.7316,4.1502 -3.0104,5.6889 -1.489,1.7929 -2.0675,2.1217 -2.5384,3.4818 2.7556,-0.1633 3.9801,-1.4219 6.226,-1.0948 1.4743,-0.9144 1.0846,-0.828 2.6842,-0.8144 1.8345,-0.43 0.8464,-0.9603 2.4035,-0.8608 l 1.1939,-0.4096 c 0.345,-0.9034 -0.8064,-1.1146 0.8311,-0.6186 -0.4084,-0.9462 -0.1649,-0.3004 0.8737,-0.005 0.1885,-0.3906 -1.0917,-0.7007 1.074,-0.6732 0.0842,-0.072 0.1967,-0.0902 0.2463,-0.2237 0.0519,-0.138 0.2107,-0.1706 0.2818,-0.1998 0.5791,-0.2398 0.4601,-0.3458 1.1359,-0.4808 0.4583,-1.605 0.9527,-1.8805 2.9735,-2.0982 0.4507,-2.0622 0.7551,-1.0791 1.4199,-3.2165 0.5286,-1.6996 -1.0763,-6.9987 -0.9766,-8.8075 0.9635,1.1285 2.3474,7.1515 2.0254,8.7684 -0.4652,2.3355 -1.8576,3.5198 -3.5229,4.7979 -1.976,1.5163 -8.7435,4.1837 -11.075,4.9125 -2.8485,0.8909 -7.2932,2.4293 -10.1571,1.9902 1.5021,-1.7671 2.4684,-2.3601 4.2075,-4.6743 3.8509,-5.1239 4.341,-6.9463 6.0939,-12.5785 z m 4.5252,-4.8461 c -0.2996,-0.2608 -0.9136,0.5142 -0.8104,-1.5415 l -0.8886,6.3987 c -0.5928,2.4862 -0.3022,1.2529 -0.9978,1.7132 0.1513,1.3649 0.5034,0.6781 -0.2648,1.5438 0.1284,2.8077 0.0298,0.7925 -0.5842,1.3821 0.3262,1.8114 0.2114,0.7708 -0.4465,0.9723 l -0.4949,2.357 c 2.0163,-0.8917 1.1452,-1.2846 2.9282,-1.9136 -0.1332,-1.5492 -0.1463,-0.6529 0.5508,-0.7129 -0.007,-1.3451 0.5133,-3.5972 1.4762,-4.4609 0.3158,1.3323 0.3586,0.9422 -0.0921,2.4281 -0.3509,1.1588 -0.0697,0.3776 -0.4861,1.0446 -0.9156,1.4666 -0.4476,0.5831 -0.898,0.9882 0.2148,1.6265 -0.544,0.8668 -1.1832,1.0269 -1.5041,2.1807 -0.4159,2.9807 -3.3565,2.6408 -0.112,-1.669 0.2352,-2.5447 1.5556,-3.3982 -0.0153,-1.6033 -0.009,-0.7489 0.4465,-0.9723 -0.1933,-1.1593 -0.3671,-0.5417 -0.002,-1.7282 0.415,-1.3502 -0.1871,-0.6452 0.851,-1.1977 -0.3691,-2.2802 0.8526,-2.6603 1.0199,-5.1707 0.1706,-2.5514 -0.6761,-3.4228 1.0196,-4.1992 0.8782,1.8831 0.8235,0.9802 0.6573,2.7995 z"
         style="fill:#ed1c24;fill-opacity:1;fill-rule:evenodd;stroke:#ed1c24;stroke-width:0.216;stroke-linecap:butt;stroke-linejoin:miter;stroke-miterlimit:22.9256;stroke-dasharray:none;stroke-opacity:1"
         id="path62" />
      <path
         d="m 309.3653,538.8435 c -1.3666,-0.8672 0.2262,0.4308 -1.1704,-0.7861 -0.4318,-0.377 -0.6733,-0.7248 -1.0752,-1.1888 -2.1867,-2.5268 -4.4263,-4.4878 -7.439,-6.247 -4.6088,-2.6907 -8.8273,-3.2471 -9.4819,-4.3869 -1.8711,-3.2582 5.2087,-1.478 8.7092,0.1516 2.8037,1.306 3.2854,1.7158 5.5834,3.5564 1.4437,1.1565 8.6114,6.4091 6.0599,8.8529 -1.3739,1.3164 -1.1367,0.0796 -1.186,0.0479"
         style="fill:#000001;fill-opacity:1;fill-rule:evenodd;stroke:none"
         id="path64" />
      <path
         d="m 269.3747,590.6631 c -5.83,2.7895 -6.952,-12.8316 1.9023,-17.2211 1.4488,-0.7177 3.7636,-0.2423 2.4253,1.9491 -0.6684,1.0928 -2.5041,1.8252 -3.7139,3.6425 -3.4997,5.2575 0.307,8.3461 -0.6137,11.6295"
         style="fill:#ffffff;fill-opacity:1;fill-rule:evenodd;stroke:none"
         id="path66" />
      <path
         d="m 311.6585,573.4431 c 0.1304,-0.0524 0.3337,0.0403 0.4093,-0.1045 l 2.583,0.4251 c 4.8529,2.7981 8.134,10.0177 4.0538,17.3676 -6.1787,0.1406 -0.4051,-3.113 -1.9879,-9.4203 -1.1336,-4.5187 -5.9823,-4.8195 -5.0582,-8.2679"
         style="fill:#ffffff;fill-opacity:1;fill-rule:evenodd;stroke:none"
         id="path68" />
      <path
         d="m 271.8133,494.4118 c -1.853,1.027 -6.1908,1.8122 -9.8654,4.1848 -1.6917,1.0925 -2.1642,1.9562 -4.1961,2.6592 -8.458,2.9279 -2.2921,-5.4063 10.0531,-9.2126 2.6583,-0.8206 2.9967,0.6596 4.0084,2.3686"
         style="fill:#ed1c24;fill-opacity:1;fill-rule:evenodd;stroke:none"
         id="path70" />
      <path
         d="m 277.0172,493.6674 c -6.4781,-1.9312 -5.1999,-8.3171 0.9572,-6.4715 6.3627,1.9063 6.255,8.6225 -0.9572,6.4715"
         style="fill:#ed1c24;fill-opacity:1;fill-rule:evenodd;stroke:none"
         id="path72" />
      <path
         d="m 275.4408,550.7649 c -5.599,1.4802 -7.6303,-4.6937 -5.3487,-6.5526 2.8154,-2.2938 7.7324,1.7594 5.3487,6.5526"
         style="fill:#ffffff;fill-opacity:1;fill-rule:evenodd;stroke:none"
         id="path74" />
      <path
         d="m 301.4498,517.1709 c -4.5295,-0.3685 -7.0285,-1.0154 -11.9168,-0.4289 -4.343,0.5213 -6.0985,1.5948 -9.26,2.8766 2.4571,-5.2452 16.9821,-7.8103 21.1768,-2.4477"
         style="fill:#ffffff;fill-opacity:1;fill-rule:evenodd;stroke:none"
         id="path76" />
      <path
         d="m 312.961,526.5394 c 2.2652,0.6985 5.5673,3.3474 6.8213,4.6775 0.7005,0.7435 3.8251,4.5532 4.0479,5.9966 0.004,0.0258 0.3855,-0.03 -0.214,1.3785 -3.2737,0.8706 -2.1603,-4.5467 -9.0482,-10.3926 -0.5091,-0.432 -0.3679,-0.2415 -0.7509,-0.6103 -1.2172,-1.1719 -0.2718,-0.1211 -0.8561,-1.0497 z m -0.6281,0.0882 c -0.0723,-0.0394 0.2027,-0.0579 0.2032,-0.1398 0,-0.0332 0.0865,-0.0598 0.0828,-0.057 -0.0164,0.0108 0.8308,0.8107 -0.286,0.1968"
         style="fill:#ffffff;fill-opacity:1;fill-rule:evenodd;stroke:none"
         id="path78" />
      <path
         d="m 273.1436,586.5523 c -0.6157,-2.4594 -1.0176,-8.7067 3.6587,-6.3939 3.2236,1.5934 -0.8782,4.2914 -2.6841,5.7067 l -0.633,0.4581 c -0.0805,0.0584 -0.2242,0.1582 -0.3416,0.2291"
         style="fill:#ffffff;fill-opacity:1;fill-rule:evenodd;stroke:none"
         id="path80" />
      <path
         d="m 311.5358,580.1335 c 1.5108,2.0046 1.6407,3.4954 0.7863,6.2952 -1.2073,-0.3728 -1.2376,-0.6665 -2.1229,-1.4593 -0.3225,-0.2891 -1.9681,-1.6469 -2.0075,-1.7 -1.9621,-2.5917 0.6696,-3.6138 3.3441,-3.1359"
         style="fill:#ffffff;fill-opacity:1;fill-rule:evenodd;stroke:none"
         id="path82" />
      <path
         d="m 253.4944,482.6704 c 0.6579,-0.2015 0.7727,0.8391 0.4465,-0.9723 0.614,-0.5896 0.7126,1.4256 0.5842,-1.3821 0.7682,-0.8657 0.4161,-0.1789 0.2648,-1.5438 0.6956,-0.4603 0.405,0.773 0.9978,-1.7132 l 0.8886,-6.3987 c -0.1032,2.0557 0.5108,1.2807 0.8104,1.5415 -0.2928,1.8896 0.0851,3.7953 0.468,5.7382 -0.9629,0.8637 -1.4836,3.1158 -1.4762,4.4609 -0.6971,0.06 -0.684,-0.8363 -0.5508,0.7129 -1.783,0.629 -0.9119,1.0219 -2.9282,1.9136 z"
         style="fill:#000001;fill-opacity:1;fill-rule:evenodd;stroke:none"
         id="path84" />
      <text
         xml:space="preserve"
         transform="matrix(0.99979826,-0.02690543,-0.02008565,-0.93412286,284.3705,686.615)"
         style="font-variant:normal;font-weight:normal;font-size:47.3809px;font-family:'Cooper Black';-inkscape-font-specification:CooperBlack;writing-mode:lr-tb;fill:#231f20;fill-opacity:1;fill-rule:nonzero;stroke:none"
         id="text88"><tspan
           x="0"
           y="0"
           id="tspan86">s</tspan></text>
      <text
         xml:space="preserve"
         transform="matrix(0.9848109,-0.19124634,-0.17363031,-0.92090595,308.5379,686.126)"
         style="font-variant:normal;font-weight:normal;font-size:47.239px;font-family:'Cooper Black';-inkscape-font-specification:CooperBlack;writing-mode:lr-tb;fill:#231f20;fill-opacity:1;fill-rule:nonzero;stroke:none"
         id="text92"><tspan
           x="0"
           y="0"
           id="tspan90">d</tspan></text>
      <text
         xml:space="preserve"
         transform="matrix(0.99109271,0.13719228,0.1331737,-0.92511332,257.7957,683.4764)"
         style="font-variant:normal;font-weight:normal;font-size:47.3639px;font-family:'Cooper Black';-inkscape-font-specification:CooperBlack;writing-mode:lr-tb;fill:#231f20;fill-opacity:1;fill-rule:nonzero;stroke:none"
         id="text96"><tspan
           x="0"
           y="0"
           id="tspan94">e</tspan></text>
      <text
         xml:space="preserve"
         transform="matrix(0.93100279,-0.39581556,-0.36501206,-0.87166353,340.2394,679.6976)"
         style="font-variant:normal;font-weight:normal;font-size:46.8455px;font-family:'Cooper Black';-inkscape-font-specification:CooperBlack;writing-mode:lr-tb;fill:#231f20;fill-opacity:1;fill-rule:nonzero;stroke:none"
         id="text100"><tspan
           x="0"
           y="0"
           id="tspan98">e</tspan></text>
      <text
         xml:space="preserve"
         transform="matrix(0.94669197,0.33970807,0.3221402,-0.88262093,220.5972,671.11)"
         style="font-variant:normal;font-weight:normal;font-size:47.1165px;font-family:'Cooper Black';-inkscape-font-specification:CooperBlack;writing-mode:lr-tb;fill:#231f20;fill-opacity:1;fill-rule:nonzero;stroke:none"
         id="text104"><tspan
           x="0"
           y="0"
           id="tspan102">D</tspan></text>
    </g>
    <path
       d="m 529.7604,352.5449 c 1.6929,0 3.9158,-0.5919 6.6614,-1.764 0.3283,-0.142 0.5893,-0.2129 0.7915,-0.2129 0.1601,0 0.6567,0.2129 1.4737,0.6273 0.2696,0.142 0.5474,0.2013 0.8422,0.2013 1.1032,0 2.2654,-1.2192 3.4863,-3.6695 1.2297,-2.4502 1.8442,-4.7823 1.8442,-7.0078 0,-1.2903 -0.2778,-2.3913 -0.8251,-3.2788 -0.5559,-0.8878 -1.2212,-1.3377 -2.0126,-1.3377 -0.6568,0 -1.196,0.1894 -1.6087,0.5564 -0.4039,0.3788 -1.3136,1.4678 -2.7116,3.3024 -1.9707,2.5807 -3.9158,3.8826 -5.819,3.8826 -0.9264,0 -1.6591,-0.3194 -2.2065,-0.9348 -0.5559,-0.6276 -0.8336,-1.4443 -0.8336,-2.4625 0,-2.012 1.2634,-3.5272 3.7811,-4.5454 3.4021,-1.4085 5.5834,-2.4383 6.535,-3.0894 4.1938,-2.8647 6.2906,-7.0906 6.2906,-12.6542 0,-4.9243 -1.4315,-8.949 -4.2947,-12.0742 -2.9223,-3.1841 -6.7542,-4.7823 -11.4699,-4.7823 -2.1053,0 -4.3285,0.3552 -6.6611,1.0537 -2.3329,0.71 -4.0255,1.5389 -5.0613,2.4857 -0.7832,0.7341 -1.4989,2.3439 -2.1305,4.8299 -0.6318,2.4857 -0.9516,4.9124 -0.9516,7.268 0,1.1362 0.1684,1.9888 0.4967,2.5688 0.4127,0.7455 0.9263,1.1126 1.5497,1.1126 0.6315,0 1.2293,-0.4499 1.8019,-1.3496 0.3456,-0.5088 1.1622,-2.1424 2.4424,-4.9005 0.606,-1.2903 1.5746,-2.3675 2.8967,-3.2196 1.3306,-0.8527 2.6949,-1.2787 4.1097,-1.2787 1.2211,0 2.2064,0.3078 2.9644,0.947 0.7577,0.6393 1.1367,1.4559 1.1367,2.4506 0,0.923 -0.3033,1.7164 -0.8926,2.391 -0.5896,0.6628 -1.5497,1.2901 -2.8885,1.87 -2.3496,1.0418 -4.1431,1.9888 -5.3728,2.8647 -1.2379,0.8643 -2.3916,1.9534 -3.4526,3.2791 -2.6025,3.2315 -3.899,6.9129 -3.899,11.0206 0,2.0358 0.3367,4.0246 1.0105,5.9542 0.6735,1.9295 1.6251,3.5985 2.8633,5.0071 2.7621,3.2553 6.1305,4.8889 10.1137,4.8889 z m -26.6624,-0.2367 c 1.878,0 3.6465,-0.2367 5.3053,-0.6985 2.2403,-0.6276 3.3517,-1.9533 3.3517,-3.9894 0,-0.6744 -0.1094,-1.1716 -0.3282,-1.503 -0.2191,-0.3433 -0.7832,-0.8288 -1.6929,-1.4797 -0.758,-0.5329 -1.2546,-1.6928 -1.4904,-3.5039 -0.2359,-1.7994 -0.3538,-5.3149 -0.3538,-10.5352 0,-8.8308 0.1517,-14.2997 0.4632,-16.4067 0.1176,-0.6749 0.2948,-1.1837 0.5303,-1.5505 0.2362,-0.3552 0.6571,-0.7461 1.2464,-1.1602 1.0866,-0.6866 1.6254,-1.6926 1.6254,-3.0186 0,-1.8465 -1.002,-3.1131 -3.0064,-3.8115 -2.1728,-0.7339 -4.8254,-1.1129 -7.9665,-1.1129 -5.3643,0 -8.0422,1.4443 -8.0422,4.309 0,1.0417 0.5219,2.0123 1.5747,2.912 0.8084,0.6865 1.2798,1.6455 1.4315,2.8409 0.3115,2.6396 0.4717,8.227 0.4717,16.7853 0,5.9185 -0.2192,9.7067 -0.6401,11.3757 -0.2358,0.9471 -0.7832,1.7992 -1.6591,2.5688 -0.6735,0.6154 -1.1282,1.1364 -1.3558,1.5625 -0.2271,0.4141 -0.3453,0.9467 -0.3453,1.5859 0,0.9947 0.3453,1.7876 1.0276,2.3794 0.6823,0.5922 1.8861,1.1129 3.6127,1.5747 2.0549,0.58 4.1349,0.8759 6.2402,0.8759 z m -32.212,-33.713 -2.9645,-9.3277 c -0.5054,-1.5744 -0.9179,-2.628 -1.2297,-3.1723 -0.32,-0.5445 -0.665,-0.8169 -1.0358,-0.8169 -0.362,0 -0.6902,0.2132 -0.9683,0.663 -0.1769,0.2724 -0.5981,1.2904 -1.2464,3.0422 -0.6485,1.7637 -1.1871,3.3264 -1.6169,4.6876 l -3.2507,10.2983 c -0.4462,1.4323 -0.9179,2.1546 -1.4063,2.1546 -0.5304,0 -0.8167,-0.6157 -0.8674,-1.8468 -0.1176,-2.7226 -0.1684,-5.2441 -0.1684,-7.552 0,-2.403 0.076,-4.0366 0.2444,-4.8889 0.1176,-0.5089 0.2693,-0.8879 0.4546,-1.1126 0.1937,-0.2367 0.7076,-0.6512 1.5412,-1.2549 0.5474,-0.3907 0.8167,-1.0653 0.8167,-2.0359 0,-2.5926 -2.3579,-3.8948 -7.0824,-3.8948 -3.9829,0 -5.9706,1.2668 -5.9706,3.7882 0,0.6392 0.1012,1.1126 0.3118,1.3967 0.2021,0.2959 0.7325,0.7222 1.5917,1.3022 0.5389,0.3549 0.9093,0.8286 1.0944,1.4204 0.1939,0.6038 0.3538,1.7757 0.4802,3.5039 0.1517,1.8584 0.2863,4.8887 0.4213,9.1027 0.1343,4.2261 0.1936,7.8363 0.1936,10.8433 0,3.7642 -0.2024,6.321 -0.6149,7.6587 -0.1431,0.4617 -0.3115,0.8166 -0.5054,1.0417 -0.1851,0.2367 -0.5473,0.5326 -1.0692,0.8997 -1.1707,0.7929 -1.7518,1.8108 -1.7518,3.0538 0,0.8169 0.2188,1.5505 0.6485,2.2255 0.4377,0.6627 1.0191,1.1364 1.7431,1.4204 0.7242,0.2962 1.6928,0.5564 2.897,0.7812 1.2126,0.2132 2.2317,0.3317 3.0736,0.3317 2.1056,0 3.596,-0.2489 4.4634,-0.7339 0.4295,-0.2251 0.7665,-0.5445 1.0106,-0.9354 0.2525,-0.3904 0.6063,-1.2073 1.061,-2.4265 l 5.1372,-13.2814 c 0.5556,-1.4562 0.9431,-2.344 1.1537,-2.6754 0.2188,-0.3194 0.5134,-0.4853 0.8926,-0.4853 0.3283,0 0.6146,0.1775 0.8757,0.5208 0.2525,0.3432 0.5558,0.9943 0.9011,1.9414 l 3.4781,9.5409 c 0.4295,1.2194 0.7072,2.0242 0.8337,2.391 0.8081,2.3085 1.6084,3.8474 2.3998,4.6165 1.0023,0.9944 2.8298,1.4919 5.474,1.4919 4.657,0 6.9811,-1.4919 6.9811,-4.4748 0,-0.6747 -0.0927,-1.2073 -0.2693,-1.6217 -0.1853,-0.4023 -0.5558,-0.8878 -1.1117,-1.4678 -0.7577,-0.805 -1.2294,-1.9769 -1.4315,-3.5039 -0.379,-3.1842 -0.5644,-7.0787 -0.5644,-11.6478 0,-5.895 0.1936,-11.0679 0.5896,-15.507 0.1012,-1.089 0.2526,-1.8229 0.4547,-2.2135 0.2106,-0.4026 0.741,-0.9825 1.5917,-1.7757 0.5981,-0.5564 0.8926,-1.29 0.8926,-2.2135 0,-1.6217 -0.7662,-2.7701 -2.2989,-3.4328 -0.7917,-0.3787 -1.6169,-0.6157 -2.4928,-0.7342 -0.8674,-0.1182 -2.2062,-0.1655 -4.017,-0.1774 -2.7791,0.0119 -4.8506,0.2843 -6.2149,0.8404 -1.5157,0.6276 -2.2737,1.681 -2.2737,3.1845 0,0.5561 0.1012,1.0179 0.2948,1.3728 0.2021,0.3552 0.7072,1.0182 1.5327,1.9653 0.4294,0.4853 0.7157,1.4204 0.8759,2.8054 0.1514,1.3847 0.2356,3.7403 0.2356,7.0787 0,1.8465 -0.0672,3.054 -0.1851,3.634 -0.1265,0.5803 -0.3875,0.864 -0.7833,0.864 -0.4546,0 -0.9011,-0.4379 -1.3305,-1.3255 -0.4295,-0.8997 -1.0696,-2.6634 -1.9199,-5.3271 z m -31.1091,15.6373 v -8.4637 c 0,-5.1018 -0.2696,-8.7242 -0.817,-10.855 -1.1622,-4.4861 -3.7307,-7.7298 -7.6969,-9.7418 -2.4001,-1.243 -5.112,-1.8706 -8.1349,-1.8706 -5.2804,0 -9.5079,1.7637 -12.6825,5.3034 -1.5497,1.7399 -2.6192,3.7522 -3.2088,6.0369 -0.5893,2.2847 -0.8926,5.599 -0.8926,9.9198 0,1.681 0.0422,4.4626 0.1264,8.3214 0.0508,2.7227 0.0757,4.5338 0.0757,5.4097 0,1.9179 -0.1009,3.2437 -0.3115,3.9892 -0.2021,0.7341 -0.6483,1.4323 -1.3391,2.0834 -1.0863,0.9941 -1.6336,2.0951 -1.6336,3.3265 0,0.8994 0.2778,1.6926 0.8254,2.391 0.5556,0.6982 1.2799,1.1719 2.1892,1.4204 1.8023,0.5092 3.9413,0.7697 6.4089,0.7697 2.7201,0 4.9685,-0.2963 6.7623,-0.8762 1.76,-0.5443 2.6442,-1.8111 2.6442,-3.7763 0,-0.9703 -0.2611,-1.74 -0.7662,-2.3199 -0.118,-0.142 -0.6149,-0.4972 -1.4823,-1.0772 -0.5303,-0.3197 -0.8844,-0.9113 -1.0695,-1.7637 -0.1939,-0.864 -0.2863,-2.2728 -0.2863,-4.2378 0,-2.0126 -0.0672,-6.3567 -0.2021,-13.0331 -0.0757,-3.9773 0.682,-7.0076 2.2992,-9.091 1.3136,-1.7164 3.0061,-2.5685 5.0777,-2.5685 1.3223,0 2.5098,0.3433 3.5793,1.0295 1.0692,0.675 1.8862,1.6101 2.442,2.782 0.4462,0.9113 0.7495,1.9176 0.9179,3.0186 0.1602,1.1126 0.2443,2.628 0.2443,4.5456 v 7.6351 c -0.0841,5.8473 -0.2024,9.2685 -0.3622,10.2748 -0.1514,1.006 -0.682,1.7991 -1.5914,2.3791 -0.8507,0.5326 -1.4318,1.0182 -1.7518,1.4562 -0.3115,0.4379 -0.4632,0.9824 -0.4632,1.6333 0,1.385 0.5896,2.3913 1.76,3.0305 1.1793,0.6392 3.0654,0.959 5.6676,0.959 2.5433,0 4.396,-0.3198 5.5327,-0.9355 1.1452,-0.6273 1.7178,-1.6217 1.7178,-2.9829 0,-0.6749 -0.1009,-1.1721 -0.2945,-1.4916 -0.2021,-0.3313 -0.7158,-0.8285 -1.558,-1.4913 -0.8674,-0.6984 -1.364,-1.4442 -1.4904,-2.2374 -0.1264,-0.805 -0.2021,-3.7644 -0.2358,-8.9016 z m -50.8655,7.8718 -2.6442,-3.5748 c -0.9683,-1.2903 -1.4485,-2.474 -1.4485,-3.5277 0,-0.5799 0.1095,-1.1599 0.3283,-1.7399 0.2191,-0.5799 0.6403,-1.3612 1.2464,-2.3559 l 9.2299,-15.0213 c 0.8169,-1.3377 1.3895,-2.1901 1.701,-2.5452 0.3116,-0.3549 0.7833,-0.7339 1.4063,-1.1245 0.8844,-0.5327 1.516,-1.1245 1.8865,-1.7757 0.3705,-0.6392 0.5558,-1.4913 0.5558,-2.5214 0,-2.45 -1.2378,-3.6813 -3.7221,-3.6813 h -9.3563 c -0.6398,0 -1.1452,0.2012 -1.5157,0.5921 -0.3705,0.3904 -0.9598,1.3612 -1.7601,2.9118 -1.2886,2.4741 -2.9812,5.3149 -5.0864,8.5348 -0.9179,1.385 -1.5665,2.2844 -1.937,2.7224 -0.3704,0.4263 -0.7072,0.6392 -1.0187,0.6392 -0.9601,0 -1.4318,-1.2665 -1.4318,-3.7876 0,-2.0481 0.3115,-3.4685 0.9346,-4.2616 0.1182,-0.1183 0.379,-0.3671 0.792,-0.7575 0.8838,-0.8169 1.3303,-1.8229 1.3303,-3.0186 0,-1.527 -0.7243,-2.6161 -2.1728,-3.2788 -1.4482,-0.663 -3.882,-0.9947 -7.3012,-0.9947 -3.0401,0 -5.2631,0.2605 -6.6611,0.7696 -0.5896,0.2251 -1.078,0.6509 -1.4485,1.2665 -0.3623,0.6157 -0.5474,1.302 -0.5474,2.0597 0,1.2311 0.4884,2.2847 1.4737,3.1606 0.4462,0.4144 0.7662,0.864 0.9516,1.3612 0.1936,0.4972 0.3705,1.3377 0.5307,2.5214 0.3282,2.6161 0.4966,6.6291 0.4966,12.0623 0,6.4752 -0.1766,11.0679 -0.5219,13.7789 -0.1264,1.1007 -0.3118,1.9055 -0.5391,2.3911 -0.2358,0.4852 -0.6316,0.9586 -1.2127,1.4204 -0.9178,0.7339 -1.381,1.7637 -1.381,3.0776 0,1.1126 0.2863,2.0007 0.8674,2.6753 0.5726,0.6747 1.4905,1.1838 2.7621,1.527 1.6758,0.4618 3.7811,0.6985 6.3161,0.6985 2.5767,0 4.4969,-0.3552 5.7433,-1.0417 1.12,-0.6512 1.6841,-1.8111 1.6841,-3.4685 0,-0.6985 -0.0924,-1.2311 -0.2608,-1.6217 -0.1769,-0.3787 -0.6234,-0.9706 -1.3476,-1.7756 -0.2611,-0.3314 -0.5051,-1.101 -0.7243,-2.3318 -0.2273,-1.2195 -0.3367,-2.4268 -0.3367,-3.5986 0,-1.9414 0.3115,-2.912 0.9431,-2.912 0.3705,0 0.7412,0.2248 1.0947,0.6865 0.3538,0.4615 1.061,1.6217 2.1308,3.4685 1.2379,2.1543 1.8525,3.6221 1.8525,4.4033 0,0.4145 -0.1514,1.0418 -0.4714,1.8703 -0.2107,0.58 -0.3201,1.1126 -0.3201,1.5982 0,1.7161 0.6568,2.9237 1.9789,3.6221 1.3139,0.7101 3.5623,1.0656 6.7286,1.0656 2.535,0 4.4127,-0.237 5.6256,-0.6985 1.4987,-0.58 2.2485,-1.7994 2.2485,-3.6697 0,-0.7458 -0.1517,-1.4324 -0.4717,-2.0716 -0.3115,-0.6392 -0.699,-1.0417 -1.1537,-1.2311 -0.3453,-0.1655 -1.1452,-0.2486 -2.3916,-0.2721 -0.8759,-0.0238 -1.5327,-0.1658 -1.9621,-0.438 -0.438,-0.2605 -1.0024,-0.8642 -1.6929,-1.7875 z m -58.6888,-5.682 v -15.9211 c 0,-3.587 0.2191,-5.8949 0.6656,-6.9367 0.5474,-1.2191 1.6841,-1.8348 3.4274,-1.8348 1.8779,0 3.3601,0.5802 4.4464,1.7283 1.0862,1.1599 1.8357,2.9593 2.2654,5.4096 0.2441,1.5032 0.8085,2.2609 1.6759,2.2609 0.8756,0 1.5831,-0.5564 2.139,-1.6452 0.5471,-1.101 0.8252,-2.5333 0.8252,-4.2854 0,-2.8645 -0.758,-5.9304 -2.274,-9.1976 -0.4714,-1.0296 -0.8926,-1.7399 -1.2546,-2.1305 -0.3623,-0.3787 -0.7999,-0.5684 -1.3051,-0.5684 l -5.4825,0.9352 H 318.113 c -1.137,0 -1.9369,0.1896 -2.4001,0.5564 -0.6738,0.5326 -1.0105,1.3258 -1.0105,2.391 0,0.6511 0.1094,1.1248 0.3367,1.4443 0.2191,0.3078 0.758,0.7577 1.6172,1.3257 0.9346,0.6274 1.5324,1.5033 1.802,2.6397 0.2106,0.947 0.32,3.717 0.32,8.2862 0,2.1308 -0.042,5.1968 -0.1264,9.1976 -0.0842,3.8353 -0.1347,6.7238 -0.1514,8.6649 0,1.8468 -0.1012,3.1133 -0.3033,3.7999 -0.2106,0.6865 -0.6401,1.1718 -1.2969,1.4677 -1.0862,0.5327 -1.777,0.959 -2.0715,1.2904 -0.5307,0.5799 -0.7917,1.2311 -0.7917,1.9769 0,1.6806 0.9938,2.9712 2.9894,3.8471 1.6928,0.7575 3.9583,1.1484 6.8046,1.1484 3.1915,0 5.5749,-0.237 7.158,-0.6985 2.0381,-0.6276 3.0572,-1.8706 3.0572,-3.7406 0,-0.7696 -0.135,-1.3377 -0.4045,-1.7048 -0.2693,-0.367 -0.9346,-0.864 -1.9874,-1.4913 -0.6231,-0.3909 -1.0188,-1.0655 -1.1874,-2.0126 -0.1602,-0.9467 -0.2444,-3.0183 -0.2444,-6.2027 z m -47.0922,15.152 h 12.6739 c 2.5682,0 4.438,0.0709 5.6169,0.2248 1.1789,0.1539 2.3244,0.4615 3.4444,0.9232 0.3452,0.1304 0.6145,0.2013 0.8084,0.2013 0.8589,0 1.6169,-0.6392 2.274,-1.9415 1.0862,-2.1067 1.6251,-4.64 1.6251,-7.6232 0,-1.5032 -0.2274,-2.6869 -0.6738,-3.5628 -0.4547,-0.8643 -1.0778,-1.2904 -1.861,-1.2904 -0.5473,0 -0.9686,0.154 -1.2716,0.4618 -0.3033,0.3078 -0.7157,1.0179 -1.2212,2.0951 -0.7242,1.5508 -1.6421,2.5925 -2.7538,3.1133 -1.1115,0.521 -2.9305,0.7812 -5.4652,0.7812 -1.895,0 -3.0402,-0.4853 -3.4529,-1.4323 -0.2188,-0.5089 -0.3453,-1.1838 -0.3872,-2.0478 -0.0337,-0.8524 -0.059,-3.0305 -0.059,-6.546 0,-1.3853 0.1684,-2.249 0.4967,-2.5807 0.3285,-0.3433 1.1874,-0.5088 2.5854,-0.5088 0.6906,0 1.196,0.2012 1.5072,0.6035 0.3118,0.4144 0.5139,1.1364 0.5896,2.1662 0.118,1.3496 0.2359,2.2609 0.3623,2.7581 0.1179,0.4972 0.3453,0.9352 0.6735,1.3023 0.3453,0.4141 0.7495,0.6273 1.2127,0.6273 0.6738,0 1.2464,-0.4499 1.7266,-1.3496 0.3452,-0.6747 0.64,-1.8584 0.8759,-3.5632 0.2355,-1.6925 0.3619,-3.4681 0.3619,-5.3146 0,-3.6579 -0.4042,-6.6527 -1.2126,-8.9844 -0.4462,-1.2785 -1.12,-1.9061 -2.0211,-1.9061 -0.5641,0 -0.9516,0.2013 -1.1622,0.6038 -0.2104,0.4025 -0.379,1.243 -0.4969,2.5095 -0.2441,2.6158 -1.3306,3.9181 -3.2505,3.9181 -0.7413,0 -1.2464,-0.3198 -1.516,-0.9825 -0.2778,-0.6628 -0.4124,-1.8822 -0.4124,-3.6578 0,-1.0888 0.0589,-2.4976 0.1598,-4.214 0.1097,-1.728 0.2189,-2.8647 0.3368,-3.4212 0.1264,-0.6862 0.5391,-1.1715 1.2212,-1.432 0.682,-0.2724 1.819,-0.4025 3.4188,-0.4025 2.4676,0 4.3203,0.4498 5.5752,1.3373 1.2464,0.8881 2.2652,2.4979 3.0569,4.8416 0.4632,1.3377 0.8756,2.2374 1.2464,2.6989 0.3705,0.4618 0.8504,0.6984 1.44,0.6984 0.6905,0 1.2631,-0.426 1.7181,-1.2665 0.4544,-0.8524 0.6735,-1.9057 0.6735,-3.1725 0,-1.385 -0.2526,-3.1249 -0.758,-5.2081 -0.5136,-2.0835 -1.137,-3.9302 -1.878,-5.5519 -0.379,-0.7813 -0.6905,-1.3023 -0.9348,-1.5744 -0.2526,-0.2605 -0.5641,-0.3906 -0.9431,-0.4025 -0.3115,0.0119 -0.7577,0.0711 -1.3558,0.2131 -1.0528,0.2725 -2.4591,0.4499 -4.2191,0.5208 h -20.9183 c -0.8422,0 -1.4907,0.2605 -1.9539,0.7812 -0.4547,0.521 -0.6905,1.2549 -0.6905,2.2019 0,0.6747 0.1012,1.16 0.303,1.4559 0.1939,0.296 0.6486,0.6866 1.3558,1.1483 0.4887,0.296 0.8592,0.6631 1.095,1.101 0.2359,0.4496 0.4213,1.0888 0.5556,1.9412 0.5392,3.492 0.817,8.2032 0.817,14.1219 0,8.9254 -0.3957,14.5483 -1.1872,16.8919 -0.1601,0.4615 -0.3455,0.7813 -0.5391,0.9706 -0.2021,0.1778 -0.6149,0.4025 -1.2379,0.6511 -0.9349,0.4026 -1.4063,1.2785 -1.4063,2.6397 0,0.7458 0.1599,1.3969 0.4714,1.9768 0.3115,0.58 0.7243,0.9587 1.2297,1.1484 0.64,0.2012 1.8864,0.3078 3.7307,0.3078 z m -31.5471,-9.7421 V 314.985 c 0,-1.4559 0.2191,-2.486 0.6653,-3.1014 0.4462,-0.6154 1.1874,-0.9233 2.2232,-0.9233 4.8002,0 7.2003,5.1373 7.2003,15.4004 0,5.6699 -0.5559,10.0616 -1.6758,13.1749 -1.2297,3.4446 -3.3265,5.1729 -6.2655,5.1729 -0.7917,0 -1.3476,-0.2251 -1.6676,-0.663 -0.3197,-0.438 -0.4799,-1.1716 -0.4799,-2.2133 z m -5.1789,-37.5956 h -1.777 c -1.0358,0 -2.198,-0.0709 -3.4779,-0.2132 -0.8084,-0.0828 -1.3643,-0.1298 -1.6758,-0.1298 -1.1032,0 -2.0044,0.3549 -2.6949,1.0771 -0.6905,0.7101 -1.0358,1.6453 -1.0358,2.8052 0,0.805 0.1514,1.4326 0.4547,1.8822 0.3033,0.4618 0.8084,0.8167 1.499,1.101 0.6567,0.2248 1.0947,0.6038 1.3305,1.1245 0.2274,0.521 0.4128,1.527 0.5389,3.0302 0.1349,1.7402 0.2526,5.114 0.3623,10.133 0.1009,5.0188 0.1599,10.0024 0.1599,14.9505 0,1.9412 -0.1095,3.2315 -0.3198,3.8826 -0.2191,0.6392 -0.716,1.16 -1.5075,1.5506 -1.1369,0.6038 -1.7013,1.6336 -1.7013,3.0895 0,1.1364 0.3875,2.0242 1.1707,2.6518 0.7832,0.6392 1.8694,0.9587 3.2675,0.9587 0.4632,0 1.002,-0.0119 1.6336,-0.0355 1.3813,-0.0711 2.3834,-0.1066 3.0064,-0.1066 2.3497,0 5.0108,0.1066 7.9665,0.3198 0.6231,0.0354 1.4063,0.0592 2.3496,0.0592 3.7642,0 6.7369,-0.5921 8.9266,-1.7994 3.259,-1.7991 5.7096,-4.8297 7.3517,-9.0794 1.4652,-3.7522 2.198,-8.2151 2.198,-13.3877 0,-2.6161 -0.2696,-5.2322 -0.817,-7.8602 -0.5388,-2.628 -1.2716,-4.9005 -2.1977,-6.8182 -1.9034,-3.8829 -4.5391,-6.6053 -7.8908,-8.1796 -1.9706,-0.9236 -4.0759,-1.385 -6.3161,-1.385 l -2.9895,0.1304 -2.5602,0.1065 c -1.9959,0.0944 -3.7474,0.1418 -5.2546,0.1418 z m -51.4633,19.5908 h 4.8422 c 0.8844,0 1.3306,0.284 1.3306,0.8404 0,0.7577 -0.6146,2.628 -1.8528,5.6109 -0.5558,1.3615 -0.9853,2.2848 -1.2798,2.7462 -0.3033,0.4618 -0.6148,0.6866 -0.9434,0.6866 -0.5893,0 -1.0865,-0.7693 -1.4737,-2.3202 -0.0672,-0.2128 -0.3115,-1.0295 -0.7158,-2.4621 -0.6905,-2.3556 -1.0357,-3.7642 -1.0357,-4.2256 0,-0.58 0.3704,-0.8762 1.1284,-0.8762 z m 17.1709,4.3682 4.6655,-14.0392 c 0.4462,-1.2903 0.817,-2.1427 1.1115,-2.5449 0.2948,-0.4145 0.7495,-0.6866 1.3558,-0.817 1.1875,-0.2605 1.7768,-1.1007 1.7768,-2.5333 0,-1.6926 -0.7243,-2.9001 -2.1725,-3.6456 -1.4485,-0.7342 -3.8149,-1.101 -7.1076,-1.1129 -3.7137,0.0119 -6.4675,0.225 -8.2613,0.663 -0.8254,0.2129 -1.4737,0.6273 -1.9621,1.2665 -0.4884,0.6392 -0.7243,1.4086 -0.7243,2.3083 0,0.6984 0.1265,1.2311 0.379,1.6101 0.2526,0.3787 0.7243,0.7338 1.4233,1.0652 0.7662,0.3668 1.1537,0.9944 1.1537,1.8703 0,1.5506 -0.6653,2.4622 -1.9959,2.7343 -1.4318,0.2843 -3.4444,0.4142 -6.0466,0.4142 -2.1894,0 -3.4948,-0.1775 -3.9242,-0.5562 -0.2611,-0.2251 -0.4885,-0.6392 -0.6906,-1.243 -0.1936,-0.6035 -0.2948,-1.1835 -0.2948,-1.7402 0,-0.4969 0.0675,-0.8283 0.2106,-0.9822 0.1432,-0.1539 0.5979,-0.4025 1.3726,-0.7458 1.0023,-0.4144 1.4992,-1.243 1.4992,-2.4976 0,-2.7465 -2.3414,-4.1315 -7.0319,-4.1315 -2.6611,0 -4.6148,0.2605 -5.8697,0.7696 -1.1537,0.4853 -1.7263,1.5506 -1.7263,3.1845 0,0.7219 0.1264,1.2784 0.379,1.6687 0.2611,0.3909 0.7158,0.7577 1.3725,1.0772 1.0696,0.5329 1.878,1.2784 2.4339,2.2374 0.5473,0.9586 1.3306,3.0067 2.3496,6.1554 l 3.4863,10.713 c 1.2802,3.9296 2.1391,6.8774 2.577,8.8305 0.4295,1.953 0.6568,3.859 0.6738,5.741 0.0167,1.9888 0.1009,3.3619 0.2608,4.1431 0.1602,0.7693 0.5054,1.527 1.0443,2.2728 1.137,1.6098 2.5852,2.4265 4.3455,2.4265 1.6588,0 3.2505,-0.9114 4.7665,-2.746 2.1052,-2.4978 5.1621,-9.7662 9.1706,-21.8162 z m -50.1409,24.3493 c 1.6926,0 3.9158,-0.5919 6.6611,-1.764 0.3283,-0.142 0.5896,-0.2129 0.7917,-0.2129 0.1599,0 0.6568,0.2129 1.4738,0.6273 0.2693,0.142 0.5471,0.2013 0.8419,0.2013 1.1032,0 2.2654,-1.2192 3.4866,-3.6695 1.2294,-2.4502 1.8442,-4.7823 1.8442,-7.0078 0,-1.2903 -0.2781,-2.3913 -0.8252,-3.2788 -0.5561,-0.8878 -1.2211,-1.3377 -2.0129,-1.3377 -0.6567,0 -1.1959,0.1894 -1.6083,0.5564 -0.4043,0.3788 -1.3139,1.4678 -2.7117,3.3024 -1.9706,2.5807 -3.916,3.8826 -5.8192,3.8826 -0.9264,0 -1.6588,-0.3194 -2.2062,-0.9348 -0.5559,-0.6276 -0.834,-1.4443 -0.834,-2.4625 0,-2.012 1.2634,-3.5272 3.7815,-4.5454 3.4021,-1.4085 5.5831,-2.4383 6.5347,-3.0894 4.1938,-2.8647 6.2906,-7.0906 6.2906,-12.6542 0,-4.9243 -1.4315,-8.949 -4.2948,-12.0742 -2.9222,-3.1841 -6.7538,-4.7823 -11.4698,-4.7823 -2.1053,0 -4.3285,0.3552 -6.6611,1.0537 -2.3326,0.71 -4.0255,1.5389 -5.0613,2.4857 -0.7832,0.7341 -1.4989,2.3439 -2.1305,4.8299 -0.6318,2.4857 -0.9516,4.9124 -0.9516,7.268 0,1.1362 0.1684,1.9888 0.4969,2.5688 0.4125,0.7455 0.9261,1.1126 1.5494,1.1126 0.6316,0 1.2297,-0.4499 1.8023,-1.3496 0.3453,-0.5088 1.1619,-2.1424 2.4421,-4.9005 0.6063,-1.2903 1.5749,-2.3675 2.8967,-3.2196 1.3309,-0.8527 2.6949,-1.2787 4.1097,-1.2787 1.2211,0 2.2064,0.3078 2.9644,0.947 0.758,0.6393 1.1367,1.4559 1.1367,2.4506 0,0.923 -0.303,1.7164 -0.8926,2.391 -0.5893,0.6628 -1.5494,1.2901 -2.8885,1.87 -2.3497,1.0418 -4.1431,1.9888 -5.3725,2.8647 -1.2382,0.8643 -2.3919,1.9534 -3.4529,3.2791 -2.6022,3.2315 -3.8991,6.9129 -3.8991,11.0206 0,2.0358 0.3368,4.0246 1.0106,5.9542 0.6738,1.9295 1.6254,3.5985 2.8633,5.0071 2.762,3.2553 6.1305,4.8889 10.114,4.8889 z m -43.3959,-28.7175 h 4.8424 c 0.8842,0 1.3306,0.284 1.3306,0.8404 0,0.7577 -0.6148,2.628 -1.8527,5.6109 -0.5559,1.3615 -0.9853,2.2848 -1.2801,2.7462 -0.3033,0.4618 -0.6146,0.6866 -0.9431,0.6866 -0.5896,0 -1.0863,-0.7693 -1.4737,-2.3202 -0.0675,-0.2128 -0.3116,-1.0295 -0.7158,-2.4621 -0.6908,-2.3556 -1.0358,-3.7642 -1.0358,-4.2256 0,-0.58 0.3705,-0.8762 1.1282,-0.8762 z m 17.1712,4.3682 4.6655,-14.0392 c 0.4462,-1.2903 0.8167,-2.1427 1.1115,-2.5449 0.2948,-0.4145 0.7495,-0.6866 1.3558,-0.817 1.1874,-0.2605 1.777,-1.1007 1.777,-2.5333 0,-1.6926 -0.7242,-2.9001 -2.173,-3.6456 -1.4482,-0.7342 -3.8146,-1.101 -7.1076,-1.1129 -3.7137,0.0119 -6.4675,0.225 -8.261,0.663 -0.8252,0.2129 -1.474,0.6273 -1.9624,1.2665 -0.4882,0.6392 -0.724,1.4086 -0.724,2.3083 0,0.6984 0.1261,1.2311 0.379,1.6101 0.2525,0.3787 0.7239,0.7338 1.423,1.0652 0.7665,0.3668 1.1537,0.9944 1.1537,1.8703 0,1.5506 -0.665,2.4622 -1.9959,2.7343 -1.4315,0.2843 -3.4441,0.4142 -6.0463,0.4142 -2.1895,0 -3.4948,-0.1775 -3.9243,-0.5562 -0.2611,-0.2251 -0.4887,-0.6392 -0.6905,-1.243 -0.1936,-0.6035 -0.2948,-1.1835 -0.2948,-1.7402 0,-0.4969 0.0675,-0.8283 0.2106,-0.9822 0.1432,-0.1539 0.5978,-0.4025 1.3725,-0.7458 1.0024,-0.4144 1.499,-1.243 1.499,-2.4976 0,-2.7465 -2.3408,-4.1315 -7.0316,-4.1315 -2.6612,0 -4.6151,0.2605 -5.8697,0.7696 -1.1537,0.4853 -1.7263,1.5506 -1.7263,3.1845 0,0.7219 0.1261,1.2784 0.3787,1.6687 0.2613,0.3909 0.716,0.7577 1.3728,1.0772 1.0695,0.5329 1.878,1.2784 2.4338,2.2374 0.5474,0.9586 1.3306,3.0067 2.3497,6.1554 l 3.4863,10.713 c 1.2798,3.9296 2.139,6.8774 2.5767,8.8305 0.4297,1.953 0.6571,3.859 0.6738,5.741 0.017,1.9888 0.1012,3.3619 0.2611,4.1431 0.1601,0.7693 0.5051,1.527 1.0442,2.2728 1.1367,1.6098 2.5855,2.4265 4.3456,2.4265 1.6588,0 3.2504,-0.9114 4.7661,-2.746 2.1056,-2.4978 5.1625,-9.7662 9.171,-21.8162 z m -50.2926,24.3493 c 2.3998,0 4.7157,-0.7339 6.9559,-2.2136 1.0528,-0.6984 1.7853,-1.0417 2.198,-1.0417 0.2945,0 0.7662,0.0947 1.4233,0.3075 0.2188,0.0712 0.4544,0.1066 0.7157,0.1066 0.8589,0 1.6084,-0.5561 2.2485,-1.6687 1.5831,-2.6757 2.3663,-6.0137 2.3663,-9.991 0,-2.7936 -0.6823,-4.8413 -2.0463,-6.1317 -0.741,-0.6984 -1.5664,-1.0417 -2.4928,-1.0417 -0.8336,0 -1.5157,0.2486 -2.0463,0.7577 -0.5221,0.5091 -1.0358,1.4205 -1.533,2.7108 -0.7072,1.8229 -1.2798,3.1368 -1.726,3.9418 -0.4382,0.7932 -0.9853,1.5152 -1.6254,2.166 -1.5916,1.5627 -3.2675,2.3556 -5.0108,2.3556 -1.6926,0 -3.0399,-0.864 -4.0337,-2.5804 -0.9938,-1.7283 -1.4904,-4.0365 -1.4904,-6.9247 0,-3.9773 0.7157,-7.6114 2.1475,-10.9259 1.9366,-4.4155 4.7157,-6.6172 8.337,-6.6172 1.3305,0 2.6526,0.3078 3.958,0.9354 1.3136,0.6271 2.3241,1.4321 3.0484,2.4265 0.6233,0.8286 1.1369,1.243 1.5326,1.243 0.5726,0 1.0696,-0.3671 1.482,-1.1248 0.4045,-0.7455 0.6148,-1.6571 0.6148,-2.7224 0,-1.3377 -0.2863,-2.8409 -0.8674,-4.5099 -0.5726,-1.6574 -1.2631,-2.9713 -2.0715,-3.9184 -0.3453,-0.3906 -1.061,-0.7338 -2.1473,-1.0417 -0.6233,-0.1536 -1.457,-0.58 -2.4928,-1.2784 -2.4338,-1.6455 -4.96,-2.4622 -7.596,-2.4622 -2.7453,0 -5.4822,0.8643 -8.2193,2.6045 -3.1663,2.012 -5.6758,5.0899 -7.52,9.2565 -1.8108,4.0485 -2.7117,8.2744 -2.7117,12.6896 0,5.1375 1.1285,9.8133 3.4022,14.0511 1.9704,3.6697 4.5476,6.4749 7.7221,8.4282 2.4171,1.4797 4.9099,2.2136 7.4784,2.2136"
       style="fill:#ed1c24;fill-opacity:1;fill-rule:nonzero;stroke:none"
       id="path106" />
  </g>
</svg>
